G04 #@! TF.FileFunction,Soldermask,Top*
%FSLAX46Y46*%
G04 Gerber Fmt 4.6, Leading zero omitted, Abs format (unit mm)*
G04 Created by KiCad (PCBNEW 0.201510241816+6277~30~ubuntu14.04.1-product) date 2015-10-26T15:41:35 CET*
%MOMM*%
G01*
G04 APERTURE LIST*
%ADD10C,0.100000*%
%ADD11C,0.010000*%
%ADD12R,2.197100X1.524000*%
%ADD13O,2.197100X1.524000*%
%ADD14R,1.524000X2.197100*%
%ADD15O,1.524000X2.197100*%
%ADD16O,1.524000X2.200000*%
G04 APERTURE END LIST*
D10*
D11*
G36*
X105774009Y-70089021D02*
X105827167Y-70095440D01*
X105858004Y-70109056D01*
X105872258Y-70132371D01*
X105875667Y-70167053D01*
X105873029Y-70205743D01*
X105862121Y-70217882D01*
X105846034Y-70213926D01*
X105747678Y-70186357D01*
X105660450Y-70188771D01*
X105640456Y-70194190D01*
X105585764Y-70228164D01*
X105553426Y-70283561D01*
X105545592Y-70354620D01*
X105557559Y-70416223D01*
X105578290Y-70464562D01*
X105608508Y-70491893D01*
X105640885Y-70505091D01*
X105708420Y-70518926D01*
X105752429Y-70508783D01*
X105772654Y-70474752D01*
X105774067Y-70457625D01*
X105769062Y-70422238D01*
X105748113Y-70409713D01*
X105731734Y-70408800D01*
X105699509Y-70401806D01*
X105689579Y-70374268D01*
X105689401Y-70366466D01*
X105691552Y-70343004D01*
X105703307Y-70330338D01*
X105732619Y-70325152D01*
X105787439Y-70324134D01*
X105791001Y-70324133D01*
X105892600Y-70324133D01*
X105892600Y-70574820D01*
X105839274Y-70593410D01*
X105771113Y-70608169D01*
X105691511Y-70612245D01*
X105613273Y-70606169D01*
X105549202Y-70590473D01*
X105528534Y-70580494D01*
X105470291Y-70539520D01*
X105434586Y-70497896D01*
X105416273Y-70445576D01*
X105410207Y-70372517D01*
X105410000Y-70349119D01*
X105411426Y-70281786D01*
X105417438Y-70237853D01*
X105430640Y-70206915D01*
X105452334Y-70179955D01*
X105511842Y-70128560D01*
X105578258Y-70099218D01*
X105662231Y-70087827D01*
X105692793Y-70087297D01*
X105774009Y-70089021D01*
X105774009Y-70089021D01*
G37*
X105774009Y-70089021D02*
X105827167Y-70095440D01*
X105858004Y-70109056D01*
X105872258Y-70132371D01*
X105875667Y-70167053D01*
X105873029Y-70205743D01*
X105862121Y-70217882D01*
X105846034Y-70213926D01*
X105747678Y-70186357D01*
X105660450Y-70188771D01*
X105640456Y-70194190D01*
X105585764Y-70228164D01*
X105553426Y-70283561D01*
X105545592Y-70354620D01*
X105557559Y-70416223D01*
X105578290Y-70464562D01*
X105608508Y-70491893D01*
X105640885Y-70505091D01*
X105708420Y-70518926D01*
X105752429Y-70508783D01*
X105772654Y-70474752D01*
X105774067Y-70457625D01*
X105769062Y-70422238D01*
X105748113Y-70409713D01*
X105731734Y-70408800D01*
X105699509Y-70401806D01*
X105689579Y-70374268D01*
X105689401Y-70366466D01*
X105691552Y-70343004D01*
X105703307Y-70330338D01*
X105732619Y-70325152D01*
X105787439Y-70324134D01*
X105791001Y-70324133D01*
X105892600Y-70324133D01*
X105892600Y-70574820D01*
X105839274Y-70593410D01*
X105771113Y-70608169D01*
X105691511Y-70612245D01*
X105613273Y-70606169D01*
X105549202Y-70590473D01*
X105528534Y-70580494D01*
X105470291Y-70539520D01*
X105434586Y-70497896D01*
X105416273Y-70445576D01*
X105410207Y-70372517D01*
X105410000Y-70349119D01*
X105411426Y-70281786D01*
X105417438Y-70237853D01*
X105430640Y-70206915D01*
X105452334Y-70179955D01*
X105511842Y-70128560D01*
X105578258Y-70099218D01*
X105662231Y-70087827D01*
X105692793Y-70087297D01*
X105774009Y-70089021D01*
G36*
X106251663Y-70264915D02*
X106341334Y-70425831D01*
X106346180Y-70264915D01*
X106351027Y-70104000D01*
X106468334Y-70104000D01*
X106468334Y-70612000D01*
X106317476Y-70612000D01*
X106138134Y-70290168D01*
X106133287Y-70451084D01*
X106128441Y-70612000D01*
X106011134Y-70612000D01*
X106011134Y-70104000D01*
X106161992Y-70104000D01*
X106251663Y-70264915D01*
X106251663Y-70264915D01*
G37*
X106251663Y-70264915D02*
X106341334Y-70425831D01*
X106346180Y-70264915D01*
X106351027Y-70104000D01*
X106468334Y-70104000D01*
X106468334Y-70612000D01*
X106317476Y-70612000D01*
X106138134Y-70290168D01*
X106133287Y-70451084D01*
X106128441Y-70612000D01*
X106011134Y-70612000D01*
X106011134Y-70104000D01*
X106161992Y-70104000D01*
X106251663Y-70264915D01*
G36*
X106725069Y-70291662D02*
X106728356Y-70375864D01*
X106732904Y-70432751D01*
X106739907Y-70468872D01*
X106750559Y-70490777D01*
X106763670Y-70503328D01*
X106793081Y-70521968D01*
X106807000Y-70527333D01*
X106827339Y-70518411D01*
X106850331Y-70503328D01*
X106865113Y-70488446D01*
X106875211Y-70465027D01*
X106881818Y-70426521D01*
X106886129Y-70366378D01*
X106888932Y-70291662D01*
X106894664Y-70104000D01*
X107027134Y-70104000D01*
X107027134Y-70299846D01*
X107025673Y-70380819D01*
X107021711Y-70451603D01*
X107015873Y-70503973D01*
X107009699Y-70528271D01*
X106971657Y-70567062D01*
X106910899Y-70594879D01*
X106837265Y-70610071D01*
X106760596Y-70610989D01*
X106690733Y-70595982D01*
X106667726Y-70585604D01*
X106635271Y-70564206D01*
X106612735Y-70537153D01*
X106598379Y-70498303D01*
X106590466Y-70441514D01*
X106587257Y-70360643D01*
X106586867Y-70299846D01*
X106586867Y-70104000D01*
X106719337Y-70104000D01*
X106725069Y-70291662D01*
X106725069Y-70291662D01*
G37*
X106725069Y-70291662D02*
X106728356Y-70375864D01*
X106732904Y-70432751D01*
X106739907Y-70468872D01*
X106750559Y-70490777D01*
X106763670Y-70503328D01*
X106793081Y-70521968D01*
X106807000Y-70527333D01*
X106827339Y-70518411D01*
X106850331Y-70503328D01*
X106865113Y-70488446D01*
X106875211Y-70465027D01*
X106881818Y-70426521D01*
X106886129Y-70366378D01*
X106888932Y-70291662D01*
X106894664Y-70104000D01*
X107027134Y-70104000D01*
X107027134Y-70299846D01*
X107025673Y-70380819D01*
X107021711Y-70451603D01*
X107015873Y-70503973D01*
X107009699Y-70528271D01*
X106971657Y-70567062D01*
X106910899Y-70594879D01*
X106837265Y-70610071D01*
X106760596Y-70610989D01*
X106690733Y-70595982D01*
X106667726Y-70585604D01*
X106635271Y-70564206D01*
X106612735Y-70537153D01*
X106598379Y-70498303D01*
X106590466Y-70441514D01*
X106587257Y-70360643D01*
X106586867Y-70299846D01*
X106586867Y-70104000D01*
X106719337Y-70104000D01*
X106725069Y-70291662D01*
G36*
X107669554Y-70094271D02*
X107726211Y-70115522D01*
X107753098Y-70150278D01*
X107755267Y-70166580D01*
X107751709Y-70194530D01*
X107734555Y-70195045D01*
X107719040Y-70187403D01*
X107638052Y-70156960D01*
X107560348Y-70151043D01*
X107493081Y-70168931D01*
X107443399Y-70209903D01*
X107439421Y-70215626D01*
X107419831Y-70267947D01*
X107412014Y-70337371D01*
X107415964Y-70409253D01*
X107431675Y-70468942D01*
X107439536Y-70483615D01*
X107481742Y-70521235D01*
X107543199Y-70545468D01*
X107610595Y-70552218D01*
X107645489Y-70546963D01*
X107678305Y-70534055D01*
X107694260Y-70510930D01*
X107700952Y-70466097D01*
X107701207Y-70462706D01*
X107706414Y-70391866D01*
X107646174Y-70391866D01*
X107601955Y-70386540D01*
X107586115Y-70369453D01*
X107585934Y-70366466D01*
X107594295Y-70351148D01*
X107623634Y-70343262D01*
X107679067Y-70341066D01*
X107772201Y-70341066D01*
X107772201Y-70457943D01*
X107771566Y-70519561D01*
X107767393Y-70555956D01*
X107756279Y-70575770D01*
X107734822Y-70587649D01*
X107718874Y-70593410D01*
X107642056Y-70609560D01*
X107558379Y-70610572D01*
X107481805Y-70597174D01*
X107438589Y-70578818D01*
X107380408Y-70527687D01*
X107345584Y-70457536D01*
X107332258Y-70364312D01*
X107331997Y-70346140D01*
X107344228Y-70246495D01*
X107380523Y-70170582D01*
X107440504Y-70118789D01*
X107523790Y-70091508D01*
X107584296Y-70087066D01*
X107669554Y-70094271D01*
X107669554Y-70094271D01*
G37*
X107669554Y-70094271D02*
X107726211Y-70115522D01*
X107753098Y-70150278D01*
X107755267Y-70166580D01*
X107751709Y-70194530D01*
X107734555Y-70195045D01*
X107719040Y-70187403D01*
X107638052Y-70156960D01*
X107560348Y-70151043D01*
X107493081Y-70168931D01*
X107443399Y-70209903D01*
X107439421Y-70215626D01*
X107419831Y-70267947D01*
X107412014Y-70337371D01*
X107415964Y-70409253D01*
X107431675Y-70468942D01*
X107439536Y-70483615D01*
X107481742Y-70521235D01*
X107543199Y-70545468D01*
X107610595Y-70552218D01*
X107645489Y-70546963D01*
X107678305Y-70534055D01*
X107694260Y-70510930D01*
X107700952Y-70466097D01*
X107701207Y-70462706D01*
X107706414Y-70391866D01*
X107646174Y-70391866D01*
X107601955Y-70386540D01*
X107586115Y-70369453D01*
X107585934Y-70366466D01*
X107594295Y-70351148D01*
X107623634Y-70343262D01*
X107679067Y-70341066D01*
X107772201Y-70341066D01*
X107772201Y-70457943D01*
X107771566Y-70519561D01*
X107767393Y-70555956D01*
X107756279Y-70575770D01*
X107734822Y-70587649D01*
X107718874Y-70593410D01*
X107642056Y-70609560D01*
X107558379Y-70610572D01*
X107481805Y-70597174D01*
X107438589Y-70578818D01*
X107380408Y-70527687D01*
X107345584Y-70457536D01*
X107332258Y-70364312D01*
X107331997Y-70346140D01*
X107344228Y-70246495D01*
X107380523Y-70170582D01*
X107440504Y-70118789D01*
X107523790Y-70091508D01*
X107584296Y-70087066D01*
X107669554Y-70094271D01*
G36*
X108113047Y-70109674D02*
X108173972Y-70128696D01*
X108210730Y-70164062D01*
X108227363Y-70218767D01*
X108229401Y-70256400D01*
X108218832Y-70327832D01*
X108185713Y-70375754D01*
X108127921Y-70402047D01*
X108057784Y-70408800D01*
X107975401Y-70408800D01*
X107975401Y-70510400D01*
X107974165Y-70567145D01*
X107968737Y-70597808D01*
X107956534Y-70610132D01*
X107941534Y-70612000D01*
X107928518Y-70610335D01*
X107919347Y-70601988D01*
X107913349Y-70581926D01*
X107909855Y-70545120D01*
X107908193Y-70486539D01*
X107907692Y-70401150D01*
X107907670Y-70362459D01*
X107975401Y-70362459D01*
X108045184Y-70353099D01*
X108093383Y-70343149D01*
X108127512Y-70329891D01*
X108132673Y-70326034D01*
X108145375Y-70297487D01*
X108150378Y-70256400D01*
X108144145Y-70209041D01*
X108120858Y-70180442D01*
X108073638Y-70164279D01*
X108045184Y-70159700D01*
X107975401Y-70150340D01*
X107975401Y-70362459D01*
X107907670Y-70362459D01*
X107907667Y-70358000D01*
X107907667Y-70104000D01*
X108023917Y-70104000D01*
X108113047Y-70109674D01*
X108113047Y-70109674D01*
G37*
X108113047Y-70109674D02*
X108173972Y-70128696D01*
X108210730Y-70164062D01*
X108227363Y-70218767D01*
X108229401Y-70256400D01*
X108218832Y-70327832D01*
X108185713Y-70375754D01*
X108127921Y-70402047D01*
X108057784Y-70408800D01*
X107975401Y-70408800D01*
X107975401Y-70510400D01*
X107974165Y-70567145D01*
X107968737Y-70597808D01*
X107956534Y-70610132D01*
X107941534Y-70612000D01*
X107928518Y-70610335D01*
X107919347Y-70601988D01*
X107913349Y-70581926D01*
X107909855Y-70545120D01*
X107908193Y-70486539D01*
X107907692Y-70401150D01*
X107907670Y-70362459D01*
X107975401Y-70362459D01*
X108045184Y-70353099D01*
X108093383Y-70343149D01*
X108127512Y-70329891D01*
X108132673Y-70326034D01*
X108145375Y-70297487D01*
X108150378Y-70256400D01*
X108144145Y-70209041D01*
X108120858Y-70180442D01*
X108073638Y-70164279D01*
X108045184Y-70159700D01*
X107975401Y-70150340D01*
X107975401Y-70362459D01*
X107907670Y-70362459D01*
X107907667Y-70358000D01*
X107907667Y-70104000D01*
X108023917Y-70104000D01*
X108113047Y-70109674D01*
G36*
X108378476Y-70105810D02*
X108387852Y-70114775D01*
X108393781Y-70136192D01*
X108397048Y-70175359D01*
X108398437Y-70237575D01*
X108398734Y-70328137D01*
X108398734Y-70561200D01*
X108525734Y-70561200D01*
X108592723Y-70562530D01*
X108632045Y-70567338D01*
X108649824Y-70576849D01*
X108652734Y-70586600D01*
X108646977Y-70598707D01*
X108625920Y-70606370D01*
X108583886Y-70610483D01*
X108515198Y-70611944D01*
X108491867Y-70612000D01*
X108331000Y-70612000D01*
X108331000Y-70358000D01*
X108331222Y-70260380D01*
X108332335Y-70191595D01*
X108335010Y-70146615D01*
X108339918Y-70120407D01*
X108347729Y-70107942D01*
X108359114Y-70104189D01*
X108364867Y-70104000D01*
X108378476Y-70105810D01*
X108378476Y-70105810D01*
G37*
X108378476Y-70105810D02*
X108387852Y-70114775D01*
X108393781Y-70136192D01*
X108397048Y-70175359D01*
X108398437Y-70237575D01*
X108398734Y-70328137D01*
X108398734Y-70561200D01*
X108525734Y-70561200D01*
X108592723Y-70562530D01*
X108632045Y-70567338D01*
X108649824Y-70576849D01*
X108652734Y-70586600D01*
X108646977Y-70598707D01*
X108625920Y-70606370D01*
X108583886Y-70610483D01*
X108515198Y-70611944D01*
X108491867Y-70612000D01*
X108331000Y-70612000D01*
X108331000Y-70358000D01*
X108331222Y-70260380D01*
X108332335Y-70191595D01*
X108335010Y-70146615D01*
X108339918Y-70120407D01*
X108347729Y-70107942D01*
X108359114Y-70104189D01*
X108364867Y-70104000D01*
X108378476Y-70105810D01*
G36*
X106081018Y-65889501D02*
X106168486Y-65895842D01*
X106240218Y-65909005D01*
X106305226Y-65931075D01*
X106372523Y-65964139D01*
X106422343Y-65992860D01*
X106482874Y-66027676D01*
X106526148Y-66047198D01*
X106563258Y-66054659D01*
X106605297Y-66053293D01*
X106622995Y-66051355D01*
X106708772Y-66041196D01*
X106697364Y-66087164D01*
X106664108Y-66154001D01*
X106604339Y-66204401D01*
X106545637Y-66228333D01*
X106513952Y-66235179D01*
X106477062Y-66238902D01*
X106429575Y-66239337D01*
X106366102Y-66236320D01*
X106281255Y-66229686D01*
X106169643Y-66219270D01*
X106133677Y-66215734D01*
X106058943Y-66212448D01*
X105990785Y-66220730D01*
X105912293Y-66242312D01*
X105788682Y-66293920D01*
X105689849Y-66363553D01*
X105609080Y-66456778D01*
X105563943Y-66531066D01*
X105529526Y-66597900D01*
X105509022Y-66648967D01*
X105498849Y-66697497D01*
X105495423Y-66756717D01*
X105495144Y-66785066D01*
X105498071Y-66867194D01*
X105509035Y-66928172D01*
X105530007Y-66979800D01*
X105571570Y-67038782D01*
X105625321Y-67087223D01*
X105681430Y-67117463D01*
X105714757Y-67123733D01*
X105750799Y-67116225D01*
X105795084Y-67092311D01*
X105850029Y-67049910D01*
X105918049Y-66986939D01*
X106001559Y-66901314D01*
X106102974Y-66790953D01*
X106110820Y-66782232D01*
X106216300Y-66667610D01*
X106306046Y-66577453D01*
X106384475Y-66509009D01*
X106456005Y-66459524D01*
X106525052Y-66426244D01*
X106596035Y-66406417D01*
X106673371Y-66397289D01*
X106730800Y-66395788D01*
X106826941Y-66401021D01*
X106908513Y-66419490D01*
X106988252Y-66455358D01*
X107069786Y-66506505D01*
X107123713Y-66542102D01*
X107167585Y-66568634D01*
X107193496Y-66581380D01*
X107196042Y-66581866D01*
X107217724Y-66571536D01*
X107230846Y-66561881D01*
X107314313Y-66561881D01*
X107360517Y-66577283D01*
X107411845Y-66582593D01*
X107458228Y-66566165D01*
X107546777Y-66538938D01*
X107643354Y-66542403D01*
X107745023Y-66575206D01*
X107848852Y-66635995D01*
X107951907Y-66723418D01*
X108051253Y-66836120D01*
X108055374Y-66841483D01*
X108144935Y-66952375D01*
X108229268Y-67044542D01*
X108304829Y-67114419D01*
X108368076Y-67158445D01*
X108373218Y-67161105D01*
X108422362Y-67190531D01*
X108461785Y-67222426D01*
X108469404Y-67230879D01*
X108490951Y-67255009D01*
X108508256Y-67255152D01*
X108534556Y-67233478D01*
X108573789Y-67210484D01*
X108608346Y-67205006D01*
X108636783Y-67200781D01*
X108655235Y-67173519D01*
X108661728Y-67154092D01*
X108684263Y-67109404D01*
X108717078Y-67092811D01*
X108740890Y-67086247D01*
X108749902Y-67069202D01*
X108747598Y-67031881D01*
X108745054Y-67014147D01*
X108740584Y-66965272D01*
X108747748Y-66938069D01*
X108764601Y-66923927D01*
X108784743Y-66906178D01*
X108782235Y-66879813D01*
X108775694Y-66864221D01*
X108764804Y-66819270D01*
X108776278Y-66768590D01*
X108787370Y-66723897D01*
X108777963Y-66685142D01*
X108767846Y-66666036D01*
X108746906Y-66597647D01*
X108748431Y-66560879D01*
X108748606Y-66512629D01*
X108726421Y-66477336D01*
X108722028Y-66473212D01*
X108693667Y-66428854D01*
X108686600Y-66391504D01*
X108679122Y-66352155D01*
X108650256Y-66328673D01*
X108636413Y-66322914D01*
X108591921Y-66292787D01*
X108566625Y-66256652D01*
X108545334Y-66222642D01*
X108511544Y-66210229D01*
X108490409Y-66209333D01*
X108440207Y-66199854D01*
X108415667Y-66175466D01*
X108382462Y-66147293D01*
X108345069Y-66141599D01*
X108292718Y-66136499D01*
X108234203Y-66124031D01*
X108227669Y-66122147D01*
X108177286Y-66111416D01*
X108146298Y-66117221D01*
X108139740Y-66121784D01*
X108111337Y-66132347D01*
X108068248Y-66122557D01*
X108065412Y-66121500D01*
X108023378Y-66111366D01*
X107980225Y-66117287D01*
X107943944Y-66130193D01*
X107895993Y-66145202D01*
X107876265Y-66142189D01*
X107885709Y-66123210D01*
X107925273Y-66090321D01*
X107925470Y-66090180D01*
X107978131Y-66062751D01*
X108046187Y-66040496D01*
X108117539Y-66026027D01*
X108180087Y-66021956D01*
X108214982Y-66027680D01*
X108257623Y-66035265D01*
X108312542Y-66034868D01*
X108324415Y-66033569D01*
X108392129Y-66034020D01*
X108426015Y-66048574D01*
X108464432Y-66065166D01*
X108515275Y-66073208D01*
X108520347Y-66073328D01*
X108570596Y-66080864D01*
X108606440Y-66108511D01*
X108618867Y-66124666D01*
X108661053Y-66165212D01*
X108696469Y-66175466D01*
X108739072Y-66190948D01*
X108769566Y-66227539D01*
X108801735Y-66270863D01*
X108835883Y-66303866D01*
X108837050Y-66304699D01*
X108866986Y-66344616D01*
X108872867Y-66377343D01*
X108883451Y-66425291D01*
X108906645Y-66467841D01*
X108931486Y-66518135D01*
X108930333Y-66561239D01*
X108933958Y-66624408D01*
X108950198Y-66657415D01*
X108969389Y-66691850D01*
X108968728Y-66718551D01*
X108952090Y-66750642D01*
X108934590Y-66785339D01*
X108936343Y-66805769D01*
X108949247Y-66819082D01*
X108972488Y-66851376D01*
X108962013Y-66882231D01*
X108938825Y-66900778D01*
X108903183Y-66923037D01*
X108938825Y-66960976D01*
X108968639Y-67000628D01*
X108968702Y-67027143D01*
X108938663Y-67044198D01*
X108930643Y-67046394D01*
X108901116Y-67056153D01*
X108897783Y-67071276D01*
X108914413Y-67099508D01*
X108932249Y-67141224D01*
X108923249Y-67167410D01*
X108896833Y-67174533D01*
X108881758Y-67178400D01*
X108884037Y-67195875D01*
X108897157Y-67223186D01*
X108912998Y-67265203D01*
X108903885Y-67287004D01*
X108869449Y-67293066D01*
X108847967Y-67297898D01*
X108851573Y-67318386D01*
X108855934Y-67326933D01*
X108864785Y-67350567D01*
X108851385Y-67359565D01*
X108823086Y-67360800D01*
X108788522Y-67363607D01*
X108777976Y-67379005D01*
X108782683Y-67413645D01*
X108793252Y-67466490D01*
X108750396Y-67438410D01*
X108707541Y-67410330D01*
X108695522Y-67474399D01*
X108683502Y-67538468D01*
X108651790Y-67499306D01*
X108620079Y-67460144D01*
X108609170Y-67503605D01*
X108593474Y-67539812D01*
X108573328Y-67542591D01*
X108552490Y-67517433D01*
X108540219Y-67501051D01*
X108535441Y-67513186D01*
X108534715Y-67534366D01*
X108527362Y-67571750D01*
X108509501Y-67578440D01*
X108485696Y-67552890D01*
X108484757Y-67551299D01*
X108471260Y-67531273D01*
X108467277Y-67540810D01*
X108466982Y-67550197D01*
X108472473Y-67587027D01*
X108483781Y-67624267D01*
X108497949Y-67652851D01*
X108518618Y-67663394D01*
X108557745Y-67660684D01*
X108570002Y-67658788D01*
X108633492Y-67642789D01*
X108695853Y-67618573D01*
X108700854Y-67616088D01*
X108782334Y-67560082D01*
X108864214Y-67478370D01*
X108940881Y-67378574D01*
X109006724Y-67268317D01*
X109056130Y-67155221D01*
X109068319Y-67117012D01*
X109084324Y-67031663D01*
X109091912Y-66925182D01*
X109091504Y-66808211D01*
X109083522Y-66691394D01*
X109068385Y-66585374D01*
X109046515Y-66500794D01*
X109043650Y-66493084D01*
X108982924Y-66372357D01*
X108899090Y-66257064D01*
X108798872Y-66153978D01*
X108688991Y-66069871D01*
X108576171Y-66011516D01*
X108559600Y-66005468D01*
X108468880Y-65981770D01*
X108363164Y-65965754D01*
X108254493Y-65958294D01*
X108154907Y-65960262D01*
X108082801Y-65970867D01*
X108026312Y-65990292D01*
X107956632Y-66021773D01*
X107888724Y-66058541D01*
X107887921Y-66059023D01*
X107826651Y-66093804D01*
X107770238Y-66122351D01*
X107729944Y-66139005D01*
X107727054Y-66139848D01*
X107679067Y-66152861D01*
X107737183Y-66183126D01*
X107761481Y-66194374D01*
X107787585Y-66201950D01*
X107820672Y-66205845D01*
X107865918Y-66206049D01*
X107928500Y-66202553D01*
X108013593Y-66195349D01*
X108126373Y-66184427D01*
X108146517Y-66182416D01*
X108241046Y-66179400D01*
X108323234Y-66193495D01*
X108405238Y-66227966D01*
X108477016Y-66271178D01*
X108577401Y-66356858D01*
X108652521Y-66464195D01*
X108701449Y-66591299D01*
X108723261Y-66736281D01*
X108724376Y-66776599D01*
X108715008Y-66896277D01*
X108687079Y-66997115D01*
X108642405Y-67075711D01*
X108582804Y-67128663D01*
X108524825Y-67150421D01*
X108473914Y-67150323D01*
X108419115Y-67130046D01*
X108358055Y-67087617D01*
X108288358Y-67021063D01*
X108207652Y-66928412D01*
X108115644Y-66810466D01*
X108062472Y-66741986D01*
X108007128Y-66674475D01*
X107958685Y-66618876D01*
X107942506Y-66601633D01*
X107844135Y-66520717D01*
X107737425Y-66468878D01*
X107626870Y-66446647D01*
X107516962Y-66454555D01*
X107412196Y-66493133D01*
X107352757Y-66531935D01*
X107314313Y-66561881D01*
X107230846Y-66561881D01*
X107252998Y-66545582D01*
X107267923Y-66532960D01*
X107367047Y-66460625D01*
X107467676Y-66418675D01*
X107577149Y-66404135D01*
X107585934Y-66404066D01*
X107677140Y-66410230D01*
X107760621Y-66430533D01*
X107840215Y-66467690D01*
X107919762Y-66524415D01*
X108003101Y-66603424D01*
X108094070Y-66707432D01*
X108191338Y-66832247D01*
X108275801Y-66940185D01*
X108347116Y-67019686D01*
X108408001Y-67072231D01*
X108461177Y-67099302D01*
X108509361Y-67102379D01*
X108555275Y-67082945D01*
X108593202Y-67051185D01*
X108641709Y-66980560D01*
X108671776Y-66889009D01*
X108682908Y-66784325D01*
X108674615Y-66674301D01*
X108646404Y-66566730D01*
X108626735Y-66520491D01*
X108564014Y-66422885D01*
X108480373Y-66338390D01*
X108384681Y-66274939D01*
X108324456Y-66250045D01*
X108275086Y-66236057D01*
X108231277Y-66228956D01*
X108182275Y-66228332D01*
X108117329Y-66233776D01*
X108063733Y-66240092D01*
X107967443Y-66251408D01*
X107897147Y-66257577D01*
X107845346Y-66258443D01*
X107804537Y-66253852D01*
X107767221Y-66243650D01*
X107739981Y-66233416D01*
X107676972Y-66193753D01*
X107646505Y-66150424D01*
X107626223Y-66104405D01*
X107624356Y-66082318D01*
X107643877Y-66077952D01*
X107678620Y-66083366D01*
X107713909Y-66086437D01*
X107748971Y-66078969D01*
X107793326Y-66057658D01*
X107848188Y-66024456D01*
X107974513Y-65957999D01*
X108102288Y-65919769D01*
X108241216Y-65907380D01*
X108314067Y-65909868D01*
X108478375Y-65932179D01*
X108621486Y-65977322D01*
X108749548Y-66048152D01*
X108868711Y-66147522D01*
X108903977Y-66183681D01*
X108989368Y-66285167D01*
X109053389Y-66387069D01*
X109098372Y-66496167D01*
X109126651Y-66619241D01*
X109140560Y-66763071D01*
X109142997Y-66878199D01*
X109139982Y-66997769D01*
X109129638Y-67093976D01*
X109109422Y-67176988D01*
X109076787Y-67256970D01*
X109029190Y-67344087D01*
X109024313Y-67352246D01*
X108931453Y-67486402D01*
X108831990Y-67589302D01*
X108723163Y-67663337D01*
X108614024Y-67707535D01*
X108568857Y-67723782D01*
X108548065Y-67742731D01*
X108542700Y-67773137D01*
X108542667Y-67777369D01*
X108548394Y-67813435D01*
X108572537Y-67830232D01*
X108593467Y-67834875D01*
X108635576Y-67854105D01*
X108649938Y-67889179D01*
X108635314Y-67934869D01*
X108621707Y-67954164D01*
X108580280Y-67982171D01*
X108516401Y-67999272D01*
X108439880Y-68004872D01*
X108360524Y-67998374D01*
X108288142Y-67979183D01*
X108278209Y-67975047D01*
X108221772Y-67952139D01*
X108169167Y-67933977D01*
X108154834Y-67929955D01*
X108111517Y-67912906D01*
X108057952Y-67883769D01*
X108033250Y-67867824D01*
X107990866Y-67839640D01*
X107960979Y-67821578D01*
X107952794Y-67817999D01*
X107948946Y-67832560D01*
X107951334Y-67868650D01*
X107958235Y-67914880D01*
X107967926Y-67959859D01*
X107978684Y-67992200D01*
X107979346Y-67993529D01*
X107994609Y-68012297D01*
X108020886Y-68018870D01*
X108068473Y-68015431D01*
X108077241Y-68014299D01*
X108131511Y-68010026D01*
X108167909Y-68017505D01*
X108201359Y-68040055D01*
X108204249Y-68042518D01*
X108230389Y-68070268D01*
X108246038Y-68104541D01*
X108255161Y-68156268D01*
X108258520Y-68192162D01*
X108261248Y-68262052D01*
X108254158Y-68317980D01*
X108233377Y-68366467D01*
X108195031Y-68414036D01*
X108135244Y-68467206D01*
X108061225Y-68524253D01*
X108067417Y-68538333D01*
X108091459Y-68567799D01*
X108107791Y-68585293D01*
X108144085Y-68632836D01*
X108161189Y-68676911D01*
X108161667Y-68683687D01*
X108146662Y-68730567D01*
X108107859Y-68774477D01*
X108054579Y-68805361D01*
X108046344Y-68808119D01*
X108019138Y-68822550D01*
X108014482Y-68849759D01*
X108017745Y-68867915D01*
X108020291Y-68922461D01*
X108009467Y-68982533D01*
X107988928Y-69035509D01*
X107962328Y-69068767D01*
X107959005Y-69070778D01*
X107918180Y-69083578D01*
X107876016Y-69088000D01*
X107799563Y-69098258D01*
X107745325Y-69126646D01*
X107716491Y-69169579D01*
X107716247Y-69223475D01*
X107728219Y-69254145D01*
X107753344Y-69326205D01*
X107748183Y-69390403D01*
X107711576Y-69450134D01*
X107642364Y-69508796D01*
X107640967Y-69509757D01*
X107605822Y-69537826D01*
X107586956Y-69560612D01*
X107585934Y-69564588D01*
X107596983Y-69586366D01*
X107624565Y-69619884D01*
X107635431Y-69631169D01*
X107685477Y-69668634D01*
X107740837Y-69680605D01*
X107746094Y-69680666D01*
X107785515Y-69682344D01*
X107797815Y-69691301D01*
X107789711Y-69713420D01*
X107787735Y-69717147D01*
X107768211Y-69753627D01*
X107829473Y-69715766D01*
X107871028Y-69694184D01*
X107889038Y-69694116D01*
X107884106Y-69713330D01*
X107856833Y-69749593D01*
X107807821Y-69800673D01*
X107806123Y-69802312D01*
X107721513Y-69883866D01*
X107775643Y-69883866D01*
X107810380Y-69886371D01*
X107816124Y-69895823D01*
X107808889Y-69904751D01*
X107773090Y-69920956D01*
X107716315Y-69926744D01*
X107649589Y-69922784D01*
X107583938Y-69909747D01*
X107530387Y-69888300D01*
X107529512Y-69887788D01*
X107493948Y-69869050D01*
X107476437Y-69864420D01*
X107476697Y-69868276D01*
X107497977Y-69888921D01*
X107534997Y-69915121D01*
X107540099Y-69918276D01*
X107592168Y-69949942D01*
X107435907Y-69949199D01*
X107360983Y-69948159D01*
X107310328Y-69944360D01*
X107274349Y-69935498D01*
X107243453Y-69919270D01*
X107210151Y-69894995D01*
X107162676Y-69851990D01*
X107123151Y-69805200D01*
X107111665Y-69786951D01*
X107090360Y-69754277D01*
X107074139Y-69742156D01*
X107071838Y-69743206D01*
X107061499Y-69772922D01*
X107065082Y-69813585D01*
X107080838Y-69846120D01*
X107081320Y-69846613D01*
X107092615Y-69863538D01*
X107081980Y-69866933D01*
X107051159Y-69852793D01*
X107020024Y-69818629D01*
X106998087Y-69776828D01*
X106993267Y-69751439D01*
X107002116Y-69709766D01*
X107023872Y-69660898D01*
X107028475Y-69653096D01*
X107063683Y-69596128D01*
X107027748Y-69549497D01*
X106980157Y-69488229D01*
X106950473Y-69451501D01*
X106936330Y-69436725D01*
X106935362Y-69441312D01*
X106941511Y-69455186D01*
X106959099Y-69521683D01*
X106945136Y-69578143D01*
X106901363Y-69620570D01*
X106862034Y-69637471D01*
X106830961Y-69660810D01*
X106825885Y-69696494D01*
X106843972Y-69727797D01*
X106855291Y-69751326D01*
X106843547Y-69763110D01*
X106824940Y-69757488D01*
X106799178Y-69729197D01*
X106777169Y-69685989D01*
X106765471Y-69643169D01*
X106766839Y-69621846D01*
X106788480Y-69595323D01*
X106825928Y-69569568D01*
X106825986Y-69569538D01*
X106859740Y-69545877D01*
X106874692Y-69523117D01*
X106874734Y-69522179D01*
X106861690Y-69501978D01*
X106827529Y-69470481D01*
X106780665Y-69435241D01*
X106700828Y-69373095D01*
X106652968Y-69318007D01*
X106636295Y-69268469D01*
X106650021Y-69222973D01*
X106661734Y-69207866D01*
X106688696Y-69167269D01*
X106684457Y-69139345D01*
X106648858Y-69123232D01*
X106646134Y-69122699D01*
X106604942Y-69105655D01*
X106589923Y-69075191D01*
X106573107Y-69043419D01*
X106551823Y-69037200D01*
X106506584Y-69021885D01*
X106470929Y-68982300D01*
X106452458Y-68927984D01*
X106451401Y-68911199D01*
X106455887Y-68869021D01*
X106466840Y-68843616D01*
X106468334Y-68842466D01*
X106485023Y-68822145D01*
X106470868Y-68805174D01*
X106438701Y-68797024D01*
X106400485Y-68783063D01*
X106386686Y-68753286D01*
X106364826Y-68715540D01*
X106325517Y-68691624D01*
X106292011Y-68674384D01*
X106273932Y-68651439D01*
X106264760Y-68611566D01*
X106261427Y-68581247D01*
X106251598Y-68525745D01*
X106236063Y-68484768D01*
X106227239Y-68473576D01*
X106209703Y-68441869D01*
X106196383Y-68379865D01*
X106190957Y-68331654D01*
X106182640Y-68250256D01*
X106173404Y-68198094D01*
X106161589Y-68170545D01*
X106145535Y-68162987D01*
X106131715Y-68166745D01*
X106100440Y-68179164D01*
X106050967Y-68197563D01*
X106019600Y-68208851D01*
X105934934Y-68238932D01*
X105929855Y-68430632D01*
X105934425Y-68617193D01*
X105960274Y-68783865D01*
X106009830Y-68936974D01*
X106085519Y-69082847D01*
X106189767Y-69227809D01*
X106271860Y-69322231D01*
X106326805Y-69382407D01*
X106372268Y-69433282D01*
X106403900Y-69469908D01*
X106417348Y-69487337D01*
X106417534Y-69487927D01*
X106406165Y-69489966D01*
X106374376Y-69470617D01*
X106325639Y-69432493D01*
X106263430Y-69378205D01*
X106227754Y-69345248D01*
X106096803Y-69206286D01*
X105995710Y-69061603D01*
X105922228Y-68906168D01*
X105874110Y-68734949D01*
X105849107Y-68542916D01*
X105846206Y-68491100D01*
X105841878Y-68410074D01*
X105836673Y-68342915D01*
X105831205Y-68295968D01*
X105826085Y-68275576D01*
X105825386Y-68275200D01*
X105807082Y-68286360D01*
X105777813Y-68313590D01*
X105774377Y-68317203D01*
X105739439Y-68345247D01*
X105696138Y-68356741D01*
X105657125Y-68357803D01*
X105595744Y-68359614D01*
X105538658Y-68365855D01*
X105525974Y-68368275D01*
X105487182Y-68372949D01*
X105468050Y-68360872D01*
X105461790Y-68346049D01*
X105459276Y-68288336D01*
X105520864Y-68288336D01*
X105524389Y-68301267D01*
X105549347Y-68294533D01*
X105552821Y-68292729D01*
X105591144Y-68281161D01*
X105643095Y-68275358D01*
X105652347Y-68275200D01*
X105705833Y-68268162D01*
X105740237Y-68249723D01*
X105740968Y-68248875D01*
X105767480Y-68223455D01*
X105804725Y-68201790D01*
X105859982Y-68180570D01*
X105940528Y-68156484D01*
X105949506Y-68153997D01*
X106062758Y-68116253D01*
X106154964Y-68068488D01*
X106238776Y-68003000D01*
X106302058Y-67939440D01*
X106380623Y-67843097D01*
X106438745Y-67742442D01*
X106482727Y-67625526D01*
X106499285Y-67565614D01*
X106514325Y-67509845D01*
X106524077Y-67484316D01*
X106530150Y-67486107D01*
X106533286Y-67503891D01*
X106533639Y-67545231D01*
X106529229Y-67607115D01*
X106520997Y-67676705D01*
X106520229Y-67682026D01*
X106509986Y-67784977D01*
X106514244Y-67868208D01*
X106534322Y-67943191D01*
X106555789Y-67991566D01*
X106572434Y-68030257D01*
X106576833Y-68052684D01*
X106574511Y-68054950D01*
X106556553Y-68041344D01*
X106530722Y-68007706D01*
X106503881Y-67964500D01*
X106482895Y-67922187D01*
X106477387Y-67906899D01*
X106462460Y-67878797D01*
X106445044Y-67868098D01*
X106434804Y-67879741D01*
X106434467Y-67884976D01*
X106423372Y-67903922D01*
X106393929Y-67939758D01*
X106351904Y-67985589D01*
X106339971Y-67997941D01*
X106245475Y-68094730D01*
X106257622Y-68256760D01*
X106267200Y-68350094D01*
X106279459Y-68409999D01*
X106293707Y-68436293D01*
X106309938Y-68462382D01*
X106324343Y-68509090D01*
X106329670Y-68537867D01*
X106340583Y-68591546D01*
X106356164Y-68619264D01*
X106375382Y-68628191D01*
X106425465Y-68648840D01*
X106449883Y-68684796D01*
X106451401Y-68698157D01*
X106467443Y-68725193D01*
X106506434Y-68743215D01*
X106549694Y-68766906D01*
X106567801Y-68801068D01*
X106557699Y-68837296D01*
X106545351Y-68850255D01*
X106523248Y-68885603D01*
X106527965Y-68924645D01*
X106554520Y-68959431D01*
X106597928Y-68982013D01*
X106630685Y-68986400D01*
X106676507Y-68999865D01*
X106724915Y-69033637D01*
X106763258Y-69077778D01*
X106774117Y-69099051D01*
X106779315Y-69146574D01*
X106761997Y-69208269D01*
X106745937Y-69252203D01*
X106744325Y-69278434D01*
X106758281Y-69300395D01*
X106770745Y-69313270D01*
X106807000Y-69349525D01*
X106807000Y-69287695D01*
X106810583Y-69248600D01*
X106826209Y-69219558D01*
X106861196Y-69189693D01*
X106883200Y-69174439D01*
X106959400Y-69123012D01*
X106959400Y-69190172D01*
X106961169Y-69233290D01*
X106972579Y-69252358D01*
X107002785Y-69257189D01*
X107022054Y-69257333D01*
X107061197Y-69259629D01*
X107071254Y-69267978D01*
X107064387Y-69277653D01*
X107043933Y-69319413D01*
X107048613Y-69370694D01*
X107074718Y-69423269D01*
X107118537Y-69468912D01*
X107162027Y-69494162D01*
X107198703Y-69515815D01*
X107212226Y-69548051D01*
X107213401Y-69571857D01*
X107220109Y-69627858D01*
X107234567Y-69675259D01*
X107255734Y-69722245D01*
X107261291Y-69663356D01*
X107273222Y-69613361D01*
X107294370Y-69573926D01*
X107295158Y-69573031D01*
X107328899Y-69544688D01*
X107375864Y-69515041D01*
X107385367Y-69510003D01*
X107451565Y-69464636D01*
X107497965Y-69409277D01*
X107518304Y-69351727D01*
X107518715Y-69343949D01*
X107520588Y-69314608D01*
X107528106Y-69316104D01*
X107537555Y-69331203D01*
X107547404Y-69368769D01*
X107547107Y-69418606D01*
X107546313Y-69424336D01*
X107536745Y-69485933D01*
X107568582Y-69447469D01*
X107595689Y-69423723D01*
X107611617Y-69427124D01*
X107630934Y-69433610D01*
X107658441Y-69415201D01*
X107686791Y-69377093D01*
X107689618Y-69371971D01*
X107696469Y-69340545D01*
X107684206Y-69298337D01*
X107671761Y-69272690D01*
X107650018Y-69223726D01*
X107637744Y-69182025D01*
X107636734Y-69172145D01*
X107623471Y-69145430D01*
X107584500Y-69139377D01*
X107521044Y-69154116D01*
X107508464Y-69158498D01*
X107463458Y-69169175D01*
X107421763Y-69161675D01*
X107394636Y-69150031D01*
X107351585Y-69131733D01*
X107320478Y-69122239D01*
X107316675Y-69121866D01*
X107298893Y-69110903D01*
X107298067Y-69106336D01*
X107313981Y-69094238D01*
X107357855Y-69080427D01*
X107423888Y-69065855D01*
X107506277Y-69051474D01*
X107599222Y-69038237D01*
X107696921Y-69027095D01*
X107793572Y-69019001D01*
X107848401Y-69016014D01*
X107950001Y-69011800D01*
X107955040Y-68925177D01*
X107956921Y-68874114D01*
X107951611Y-68847126D01*
X107934255Y-68834505D01*
X107906356Y-68827811D01*
X107803245Y-68817721D01*
X107683099Y-68826359D01*
X107590237Y-68842691D01*
X107456856Y-68858243D01*
X107341252Y-68845734D01*
X107244043Y-68805331D01*
X107165844Y-68737202D01*
X107155971Y-68724837D01*
X107126581Y-68681686D01*
X107088576Y-68619560D01*
X107048718Y-68549656D01*
X107035929Y-68526074D01*
X106998829Y-68462038D01*
X106962321Y-68408146D01*
X106932265Y-68372721D01*
X106922652Y-68365163D01*
X106896966Y-68349384D01*
X106900078Y-68344647D01*
X106933963Y-68346910D01*
X106975814Y-68360006D01*
X107012393Y-68395771D01*
X107026855Y-68416684D01*
X107068984Y-68481969D01*
X107089912Y-68430680D01*
X107110426Y-68391126D01*
X107130790Y-68367068D01*
X107131131Y-68366851D01*
X107143755Y-68365100D01*
X107138127Y-68386722D01*
X107113194Y-68457685D01*
X107107349Y-68512703D01*
X107121657Y-68564502D01*
X107157185Y-68625809D01*
X107158273Y-68627452D01*
X107218913Y-68704134D01*
X107285647Y-68756605D01*
X107363424Y-68786264D01*
X107457196Y-68794512D01*
X107571914Y-68782748D01*
X107651561Y-68766959D01*
X107735712Y-68751012D01*
X107821728Y-68739500D01*
X107894863Y-68734257D01*
X107914448Y-68734237D01*
X108007661Y-68732109D01*
X108068698Y-68719647D01*
X108097662Y-68696753D01*
X108094660Y-68663334D01*
X108059795Y-68619293D01*
X108050384Y-68610449D01*
X108006965Y-68576038D01*
X107966892Y-68561456D01*
X107912184Y-68560220D01*
X107911194Y-68560268D01*
X107831467Y-68564198D01*
X107950001Y-68505484D01*
X108064753Y-68438113D01*
X108146108Y-68366161D01*
X108194249Y-68289435D01*
X108208068Y-68234768D01*
X108208772Y-68168738D01*
X108191594Y-68119209D01*
X108187490Y-68112602D01*
X108165893Y-68085333D01*
X108140863Y-68074526D01*
X108099562Y-68076057D01*
X108081132Y-68078435D01*
X108017964Y-68078280D01*
X107963088Y-68056752D01*
X107912260Y-68010520D01*
X107861233Y-67936252D01*
X107831798Y-67882731D01*
X107790809Y-67809315D01*
X107739058Y-67724252D01*
X107717528Y-67691256D01*
X107789134Y-67691256D01*
X107796669Y-67710375D01*
X107815702Y-67746855D01*
X107840873Y-67791483D01*
X107866824Y-67835045D01*
X107888196Y-67868330D01*
X107899629Y-67882123D01*
X107900095Y-67882016D01*
X107898732Y-67864289D01*
X107889850Y-67823619D01*
X107878324Y-67779645D01*
X107859171Y-67721398D01*
X107840642Y-67690966D01*
X107820214Y-67682533D01*
X107794204Y-67686496D01*
X107789134Y-67691256D01*
X107717528Y-67691256D01*
X107686054Y-67643021D01*
X107675287Y-67627420D01*
X107745309Y-67627420D01*
X107764693Y-67626858D01*
X107803719Y-67615514D01*
X107824412Y-67607744D01*
X107874687Y-67591370D01*
X107903303Y-67589873D01*
X107906657Y-67602789D01*
X107895367Y-67616940D01*
X107881361Y-67651567D01*
X107898568Y-67694334D01*
X107945771Y-67743622D01*
X108021750Y-67797814D01*
X108039760Y-67808782D01*
X108099816Y-67843262D01*
X108149990Y-67869754D01*
X108182451Y-67884217D01*
X108188916Y-67885733D01*
X108215229Y-67892323D01*
X108259126Y-67909014D01*
X108282585Y-67919228D01*
X108351099Y-67941360D01*
X108426035Y-67951691D01*
X108495975Y-67949834D01*
X108549498Y-67935405D01*
X108560597Y-67928605D01*
X108578191Y-67909988D01*
X108572300Y-67903205D01*
X108538767Y-67888368D01*
X108506343Y-67854051D01*
X108485850Y-67813217D01*
X108483400Y-67796706D01*
X108473828Y-67766441D01*
X108448217Y-67717792D01*
X108411232Y-67659180D01*
X108391982Y-67631606D01*
X108346761Y-67563855D01*
X108306599Y-67494832D01*
X108278341Y-67436579D01*
X108272965Y-67422282D01*
X108217212Y-67292437D01*
X108144779Y-67181820D01*
X108059538Y-67095459D01*
X107983604Y-67046663D01*
X107911759Y-67018881D01*
X107853368Y-67009883D01*
X107812257Y-67017738D01*
X107792252Y-67040514D01*
X107797181Y-67076282D01*
X107830869Y-67123108D01*
X107831284Y-67123542D01*
X107876146Y-67191322D01*
X107896860Y-67269793D01*
X107890941Y-67347340D01*
X107883687Y-67368480D01*
X107869395Y-67409894D01*
X107871590Y-67433581D01*
X107881722Y-67445014D01*
X107904418Y-67475536D01*
X107914565Y-67511240D01*
X107908512Y-67537421D01*
X107905336Y-67540040D01*
X107880299Y-67539312D01*
X107866542Y-67531136D01*
X107847937Y-67524069D01*
X107835718Y-67545427D01*
X107833159Y-67554820D01*
X107807213Y-67594858D01*
X107779621Y-67608109D01*
X107750979Y-67618728D01*
X107745309Y-67627420D01*
X107675287Y-67627420D01*
X107672420Y-67623266D01*
X107583402Y-67496266D01*
X107662134Y-67496266D01*
X107663476Y-67511870D01*
X107669601Y-67513200D01*
X107686845Y-67500907D01*
X107687534Y-67496266D01*
X107681756Y-67479773D01*
X107680067Y-67479333D01*
X107665609Y-67491199D01*
X107662134Y-67496266D01*
X107583402Y-67496266D01*
X107577467Y-67487800D01*
X107577467Y-67349464D01*
X107578561Y-67278433D01*
X107583251Y-67231875D01*
X107593647Y-67200428D01*
X107611860Y-67174732D01*
X107618519Y-67167430D01*
X107665369Y-67131550D01*
X107707468Y-67126812D01*
X107736347Y-67146739D01*
X107744549Y-67170572D01*
X107729221Y-67202536D01*
X107720258Y-67214472D01*
X107697724Y-67244738D01*
X107696044Y-67256893D01*
X107714820Y-67259194D01*
X107718098Y-67259199D01*
X107756630Y-67271537D01*
X107772192Y-67284589D01*
X107782316Y-67301219D01*
X107768784Y-67304279D01*
X107742486Y-67299823D01*
X107706267Y-67296935D01*
X107683196Y-67312154D01*
X107664222Y-67344769D01*
X107646024Y-67384335D01*
X107636961Y-67410094D01*
X107636734Y-67412121D01*
X107651165Y-67419601D01*
X107687258Y-67419170D01*
X107734214Y-67412568D01*
X107781232Y-67401536D01*
X107817512Y-67387814D01*
X107827234Y-67381422D01*
X107854096Y-67337256D01*
X107856921Y-67279107D01*
X107836736Y-67215770D01*
X107801834Y-67163942D01*
X107764087Y-67110211D01*
X107735597Y-67050721D01*
X107729867Y-67032120D01*
X107717654Y-66989939D01*
X107700848Y-66968912D01*
X107668414Y-66960501D01*
X107633749Y-66957756D01*
X107578467Y-66958067D01*
X107538576Y-66971745D01*
X107499465Y-67001877D01*
X107444367Y-67051107D01*
X107481284Y-67082717D01*
X107511796Y-67125826D01*
X107514840Y-67171082D01*
X107495120Y-67210063D01*
X107457344Y-67234346D01*
X107406217Y-67235510D01*
X107397282Y-67233042D01*
X107370859Y-67216798D01*
X107368604Y-67199352D01*
X107391201Y-67191466D01*
X107414926Y-67183017D01*
X107414278Y-67162430D01*
X107410211Y-67157600D01*
X107457724Y-67157600D01*
X107463177Y-67179197D01*
X107474416Y-67174291D01*
X107481090Y-67150310D01*
X107474416Y-67140908D01*
X107460891Y-67138288D01*
X107457724Y-67157600D01*
X107410211Y-67157600D01*
X107392728Y-67136842D01*
X107353746Y-67113392D01*
X107353101Y-67113117D01*
X107273115Y-67077728D01*
X107218575Y-67049345D01*
X107183020Y-67023628D01*
X107159984Y-66996237D01*
X107148918Y-66976013D01*
X107126235Y-66939901D01*
X107097671Y-66923782D01*
X107056118Y-66926872D01*
X106994467Y-66948387D01*
X106974546Y-66956783D01*
X106916066Y-66977938D01*
X106861143Y-66986201D01*
X106792703Y-66983875D01*
X106781394Y-66982866D01*
X106690741Y-66980655D01*
X106599612Y-66993337D01*
X106549255Y-67005484D01*
X106482526Y-67021731D01*
X106423096Y-67033585D01*
X106383178Y-67038632D01*
X106381502Y-67038668D01*
X106302690Y-67053012D01*
X106214766Y-67091202D01*
X106125795Y-67147898D01*
X106043843Y-67217760D01*
X105976974Y-67295446D01*
X105963643Y-67315333D01*
X105910329Y-67409954D01*
X105859939Y-67517641D01*
X105816194Y-67628714D01*
X105782817Y-67733490D01*
X105763532Y-67822288D01*
X105761282Y-67841597D01*
X105748860Y-67917675D01*
X105728144Y-67973940D01*
X105720288Y-67986002D01*
X105695758Y-68028977D01*
X105674237Y-68085037D01*
X105669970Y-68100302D01*
X105656226Y-68144347D01*
X105642944Y-68170487D01*
X105638381Y-68173600D01*
X105618910Y-68184199D01*
X105585860Y-68210765D01*
X105572658Y-68222727D01*
X105537408Y-68260551D01*
X105520864Y-68288336D01*
X105459276Y-68288336D01*
X105459069Y-68283603D01*
X105489032Y-68220072D01*
X105537672Y-68168487D01*
X105578660Y-68125453D01*
X105607850Y-68080362D01*
X105614354Y-68062974D01*
X105630477Y-68017107D01*
X105656615Y-67961490D01*
X105667656Y-67941368D01*
X105698359Y-67878299D01*
X105703284Y-67833658D01*
X105680063Y-67801816D01*
X105626330Y-67777144D01*
X105594639Y-67767715D01*
X105450703Y-67714260D01*
X105327453Y-67636509D01*
X105218341Y-67530295D01*
X105214572Y-67525862D01*
X105124440Y-67406724D01*
X105058354Y-67288058D01*
X105013753Y-67162295D01*
X104988080Y-67021868D01*
X104978774Y-66859206D01*
X104978638Y-66828075D01*
X104979114Y-66797052D01*
X105021326Y-66797052D01*
X105026626Y-66926665D01*
X105043537Y-67055231D01*
X105070683Y-67169021D01*
X105081060Y-67199411D01*
X105136868Y-67318035D01*
X105211307Y-67431546D01*
X105298126Y-67532474D01*
X105391070Y-67613353D01*
X105465451Y-67658514D01*
X105518263Y-67680085D01*
X105578631Y-67699282D01*
X105636905Y-67713735D01*
X105683439Y-67721075D01*
X105708583Y-67718931D01*
X105709249Y-67718405D01*
X105719217Y-67696388D01*
X105730035Y-67654439D01*
X105732799Y-67640199D01*
X105744966Y-67572466D01*
X105709280Y-67614799D01*
X105673594Y-67657133D01*
X105673031Y-67599475D01*
X105671254Y-67562064D01*
X105663275Y-67553305D01*
X105643552Y-67567991D01*
X105641500Y-67569842D01*
X105610901Y-67593330D01*
X105593450Y-67589869D01*
X105581483Y-67556431D01*
X105578907Y-67545122D01*
X105567322Y-67492377D01*
X105537221Y-67538263D01*
X105515455Y-67566220D01*
X105500364Y-67567768D01*
X105487974Y-67540287D01*
X105478122Y-67499326D01*
X105468437Y-67462978D01*
X105456968Y-67454886D01*
X105436697Y-67469693D01*
X105403850Y-67493220D01*
X105388330Y-67487739D01*
X105389163Y-67452741D01*
X105390527Y-67445466D01*
X105394852Y-67411543D01*
X105383422Y-67397542D01*
X105347715Y-67394678D01*
X105341248Y-67394666D01*
X105302740Y-67392740D01*
X105291257Y-67383253D01*
X105299934Y-67360800D01*
X105308916Y-67335954D01*
X105293385Y-67327569D01*
X105275130Y-67326933D01*
X105241633Y-67320723D01*
X105234645Y-67299590D01*
X105253373Y-67259780D01*
X105259091Y-67250834D01*
X105275869Y-67221151D01*
X105269208Y-67207200D01*
X105242158Y-67198794D01*
X105205910Y-67183906D01*
X105202452Y-67163714D01*
X105223734Y-67140666D01*
X105244833Y-67112228D01*
X105246956Y-67085473D01*
X105229336Y-67072722D01*
X105227967Y-67072674D01*
X105195688Y-67063911D01*
X105181844Y-67056632D01*
X105168577Y-67042060D01*
X105176797Y-67021479D01*
X105197496Y-66997625D01*
X105238104Y-66954400D01*
X105198501Y-66912244D01*
X105173084Y-66882174D01*
X105169961Y-66862217D01*
X105187143Y-66838876D01*
X105187619Y-66838351D01*
X105205455Y-66814520D01*
X105205510Y-66792142D01*
X105187581Y-66756507D01*
X105186464Y-66754558D01*
X105167849Y-66718316D01*
X105168001Y-66695093D01*
X105188154Y-66668931D01*
X105193528Y-66663182D01*
X105217634Y-66630095D01*
X105222132Y-66594278D01*
X105216373Y-66561370D01*
X105210067Y-66515057D01*
X105219827Y-66485443D01*
X105233842Y-66470314D01*
X105258339Y-66434337D01*
X105275575Y-66385123D01*
X105276468Y-66380575D01*
X105305412Y-66313361D01*
X105343517Y-66272437D01*
X105381234Y-66235258D01*
X105406599Y-66200169D01*
X105410126Y-66192004D01*
X105432626Y-66165209D01*
X105470408Y-66158533D01*
X105514067Y-66148075D01*
X105555716Y-66122561D01*
X105583168Y-66090779D01*
X105587801Y-66073866D01*
X105602835Y-66063316D01*
X105640445Y-66057397D01*
X105656375Y-66056933D01*
X105716029Y-66049872D01*
X105771649Y-66032593D01*
X105777462Y-66029777D01*
X105851380Y-66010142D01*
X105891565Y-66012470D01*
X105950903Y-66014333D01*
X106013074Y-66005690D01*
X106018424Y-66004297D01*
X106091714Y-65996080D01*
X106179399Y-66003577D01*
X106267419Y-66024142D01*
X106341711Y-66055130D01*
X106363613Y-66069233D01*
X106401128Y-66101100D01*
X106408492Y-66117863D01*
X106385985Y-66119272D01*
X106333891Y-66105080D01*
X106325935Y-66102409D01*
X106269474Y-66087096D01*
X106226670Y-66087373D01*
X106197657Y-66095886D01*
X106152158Y-66106874D01*
X106116890Y-66097179D01*
X106111984Y-66094261D01*
X106070930Y-66082200D01*
X106045724Y-66090412D01*
X106009798Y-66100774D01*
X105956354Y-66106962D01*
X105930532Y-66107733D01*
X105872577Y-66111843D01*
X105833626Y-66127446D01*
X105807934Y-66150066D01*
X105760029Y-66183752D01*
X105705218Y-66192400D01*
X105661682Y-66196193D01*
X105640100Y-66211981D01*
X105631642Y-66234754D01*
X105604978Y-66275968D01*
X105557839Y-66306745D01*
X105514383Y-66332671D01*
X105494351Y-66363624D01*
X105489391Y-66390981D01*
X105469826Y-66447419D01*
X105443369Y-66477633D01*
X105415620Y-66506167D01*
X105411895Y-66538119D01*
X105417335Y-66560985D01*
X105422762Y-66607259D01*
X105406798Y-66653018D01*
X105398209Y-66667929D01*
X105377151Y-66707609D01*
X105374460Y-66737334D01*
X105388724Y-66774639D01*
X105389484Y-66776236D01*
X105404970Y-66817667D01*
X105401815Y-66850326D01*
X105391105Y-66873737D01*
X105377020Y-66907448D01*
X105383894Y-66928107D01*
X105402066Y-66942706D01*
X105424076Y-66964950D01*
X105429919Y-66996644D01*
X105425694Y-67034535D01*
X105420782Y-67078613D01*
X105428526Y-67101705D01*
X105454527Y-67115946D01*
X105465003Y-67119709D01*
X105506029Y-67144900D01*
X105525685Y-67189958D01*
X105526042Y-67191705D01*
X105536920Y-67228577D01*
X105555808Y-67240208D01*
X105583540Y-67237135D01*
X105634402Y-67240722D01*
X105667526Y-67262842D01*
X105704917Y-67297639D01*
X105760659Y-67251781D01*
X105804596Y-67218619D01*
X105863981Y-67177550D01*
X105919608Y-67141494D01*
X105996640Y-67083562D01*
X106088399Y-66997020D01*
X106188075Y-66889364D01*
X106287140Y-66782042D01*
X106374697Y-66699544D01*
X106456394Y-66637495D01*
X106537882Y-66591519D01*
X106610794Y-66561949D01*
X106731600Y-66533733D01*
X106842336Y-66537240D01*
X106946276Y-66573067D01*
X107045949Y-66641170D01*
X107091893Y-66677523D01*
X107128523Y-66701275D01*
X107148047Y-66707387D01*
X107148215Y-66707292D01*
X107156077Y-66717427D01*
X107161303Y-66752892D01*
X107162601Y-66790007D01*
X107166853Y-66877215D01*
X107182704Y-66939430D01*
X107214793Y-66984803D01*
X107267758Y-67021483D01*
X107304701Y-67039650D01*
X107408134Y-67086766D01*
X107413290Y-67048075D01*
X107429051Y-67015177D01*
X107463287Y-66975229D01*
X107485257Y-66955694D01*
X107535854Y-66902421D01*
X107554164Y-66848890D01*
X107539884Y-66793873D01*
X107492713Y-66736140D01*
X107417066Y-66677596D01*
X107377316Y-66654925D01*
X107357713Y-66651740D01*
X107361560Y-66667535D01*
X107374796Y-66684051D01*
X107396894Y-66725216D01*
X107408858Y-66780439D01*
X107409299Y-66787049D01*
X107415836Y-66835320D01*
X107427922Y-66869725D01*
X107431545Y-66874518D01*
X107448742Y-66904797D01*
X107450467Y-66915843D01*
X107443873Y-66927651D01*
X107419998Y-66917983D01*
X107408134Y-66910509D01*
X107377459Y-66880558D01*
X107366321Y-66837087D01*
X107365801Y-66819294D01*
X107351375Y-66753841D01*
X107312955Y-66701951D01*
X107257823Y-66671410D01*
X107222880Y-66666533D01*
X107176887Y-66657175D01*
X107131149Y-66625247D01*
X107110889Y-66605208D01*
X107062891Y-66564107D01*
X106999437Y-66521568D01*
X106950934Y-66495154D01*
X106886707Y-66467661D01*
X106828857Y-66452732D01*
X106761243Y-66446946D01*
X106720805Y-66446413D01*
X106646051Y-66449080D01*
X106580775Y-66459007D01*
X106520540Y-66479056D01*
X106460906Y-66512091D01*
X106397436Y-66560973D01*
X106325691Y-66628566D01*
X106241234Y-66717732D01*
X106160219Y-66808006D01*
X106086384Y-66890369D01*
X106016096Y-66966794D01*
X105953851Y-67032543D01*
X105904146Y-67082878D01*
X105871479Y-67113059D01*
X105868405Y-67115495D01*
X105790227Y-67158173D01*
X105709104Y-67172562D01*
X105632520Y-67158001D01*
X105597779Y-67139324D01*
X105519125Y-67066084D01*
X105466392Y-66974146D01*
X105440102Y-66867208D01*
X105440774Y-66748973D01*
X105468929Y-66623140D01*
X105510811Y-66521066D01*
X105589059Y-66395591D01*
X105686566Y-66295424D01*
X105800645Y-66223162D01*
X105834190Y-66208673D01*
X105876481Y-66193814D01*
X105920561Y-66182823D01*
X105971495Y-66175424D01*
X106034350Y-66171337D01*
X106114191Y-66170285D01*
X106216083Y-66171988D01*
X106345093Y-66176170D01*
X106392843Y-66177982D01*
X106469947Y-66179856D01*
X106522306Y-66177475D01*
X106558908Y-66169615D01*
X106588738Y-66155054D01*
X106596043Y-66150322D01*
X106646134Y-66116712D01*
X106569934Y-66106832D01*
X106512627Y-66091950D01*
X106443331Y-66063381D01*
X106390381Y-66035251D01*
X106325493Y-66000544D01*
X106259458Y-65971619D01*
X106212581Y-65956389D01*
X106138489Y-65945555D01*
X106042435Y-65940274D01*
X105935835Y-65940362D01*
X105830104Y-65945638D01*
X105736657Y-65955918D01*
X105689766Y-65964756D01*
X105537343Y-66017159D01*
X105397547Y-66097377D01*
X105274212Y-66201258D01*
X105171176Y-66324647D01*
X105092275Y-66463391D01*
X105041345Y-66613337D01*
X105029014Y-66680121D01*
X105021326Y-66797052D01*
X104979114Y-66797052D01*
X104980157Y-66729193D01*
X104985040Y-66654072D01*
X104994507Y-66592674D01*
X105009778Y-66534963D01*
X105016932Y-66513154D01*
X105086903Y-66351104D01*
X105178250Y-66214662D01*
X105292607Y-66101918D01*
X105431608Y-66010964D01*
X105458349Y-65997263D01*
X105560013Y-65951139D01*
X105653068Y-65919479D01*
X105748410Y-65899949D01*
X105856936Y-65890213D01*
X105968800Y-65887895D01*
X106081018Y-65889501D01*
X106081018Y-65889501D01*
G37*
X106081018Y-65889501D02*
X106168486Y-65895842D01*
X106240218Y-65909005D01*
X106305226Y-65931075D01*
X106372523Y-65964139D01*
X106422343Y-65992860D01*
X106482874Y-66027676D01*
X106526148Y-66047198D01*
X106563258Y-66054659D01*
X106605297Y-66053293D01*
X106622995Y-66051355D01*
X106708772Y-66041196D01*
X106697364Y-66087164D01*
X106664108Y-66154001D01*
X106604339Y-66204401D01*
X106545637Y-66228333D01*
X106513952Y-66235179D01*
X106477062Y-66238902D01*
X106429575Y-66239337D01*
X106366102Y-66236320D01*
X106281255Y-66229686D01*
X106169643Y-66219270D01*
X106133677Y-66215734D01*
X106058943Y-66212448D01*
X105990785Y-66220730D01*
X105912293Y-66242312D01*
X105788682Y-66293920D01*
X105689849Y-66363553D01*
X105609080Y-66456778D01*
X105563943Y-66531066D01*
X105529526Y-66597900D01*
X105509022Y-66648967D01*
X105498849Y-66697497D01*
X105495423Y-66756717D01*
X105495144Y-66785066D01*
X105498071Y-66867194D01*
X105509035Y-66928172D01*
X105530007Y-66979800D01*
X105571570Y-67038782D01*
X105625321Y-67087223D01*
X105681430Y-67117463D01*
X105714757Y-67123733D01*
X105750799Y-67116225D01*
X105795084Y-67092311D01*
X105850029Y-67049910D01*
X105918049Y-66986939D01*
X106001559Y-66901314D01*
X106102974Y-66790953D01*
X106110820Y-66782232D01*
X106216300Y-66667610D01*
X106306046Y-66577453D01*
X106384475Y-66509009D01*
X106456005Y-66459524D01*
X106525052Y-66426244D01*
X106596035Y-66406417D01*
X106673371Y-66397289D01*
X106730800Y-66395788D01*
X106826941Y-66401021D01*
X106908513Y-66419490D01*
X106988252Y-66455358D01*
X107069786Y-66506505D01*
X107123713Y-66542102D01*
X107167585Y-66568634D01*
X107193496Y-66581380D01*
X107196042Y-66581866D01*
X107217724Y-66571536D01*
X107230846Y-66561881D01*
X107314313Y-66561881D01*
X107360517Y-66577283D01*
X107411845Y-66582593D01*
X107458228Y-66566165D01*
X107546777Y-66538938D01*
X107643354Y-66542403D01*
X107745023Y-66575206D01*
X107848852Y-66635995D01*
X107951907Y-66723418D01*
X108051253Y-66836120D01*
X108055374Y-66841483D01*
X108144935Y-66952375D01*
X108229268Y-67044542D01*
X108304829Y-67114419D01*
X108368076Y-67158445D01*
X108373218Y-67161105D01*
X108422362Y-67190531D01*
X108461785Y-67222426D01*
X108469404Y-67230879D01*
X108490951Y-67255009D01*
X108508256Y-67255152D01*
X108534556Y-67233478D01*
X108573789Y-67210484D01*
X108608346Y-67205006D01*
X108636783Y-67200781D01*
X108655235Y-67173519D01*
X108661728Y-67154092D01*
X108684263Y-67109404D01*
X108717078Y-67092811D01*
X108740890Y-67086247D01*
X108749902Y-67069202D01*
X108747598Y-67031881D01*
X108745054Y-67014147D01*
X108740584Y-66965272D01*
X108747748Y-66938069D01*
X108764601Y-66923927D01*
X108784743Y-66906178D01*
X108782235Y-66879813D01*
X108775694Y-66864221D01*
X108764804Y-66819270D01*
X108776278Y-66768590D01*
X108787370Y-66723897D01*
X108777963Y-66685142D01*
X108767846Y-66666036D01*
X108746906Y-66597647D01*
X108748431Y-66560879D01*
X108748606Y-66512629D01*
X108726421Y-66477336D01*
X108722028Y-66473212D01*
X108693667Y-66428854D01*
X108686600Y-66391504D01*
X108679122Y-66352155D01*
X108650256Y-66328673D01*
X108636413Y-66322914D01*
X108591921Y-66292787D01*
X108566625Y-66256652D01*
X108545334Y-66222642D01*
X108511544Y-66210229D01*
X108490409Y-66209333D01*
X108440207Y-66199854D01*
X108415667Y-66175466D01*
X108382462Y-66147293D01*
X108345069Y-66141599D01*
X108292718Y-66136499D01*
X108234203Y-66124031D01*
X108227669Y-66122147D01*
X108177286Y-66111416D01*
X108146298Y-66117221D01*
X108139740Y-66121784D01*
X108111337Y-66132347D01*
X108068248Y-66122557D01*
X108065412Y-66121500D01*
X108023378Y-66111366D01*
X107980225Y-66117287D01*
X107943944Y-66130193D01*
X107895993Y-66145202D01*
X107876265Y-66142189D01*
X107885709Y-66123210D01*
X107925273Y-66090321D01*
X107925470Y-66090180D01*
X107978131Y-66062751D01*
X108046187Y-66040496D01*
X108117539Y-66026027D01*
X108180087Y-66021956D01*
X108214982Y-66027680D01*
X108257623Y-66035265D01*
X108312542Y-66034868D01*
X108324415Y-66033569D01*
X108392129Y-66034020D01*
X108426015Y-66048574D01*
X108464432Y-66065166D01*
X108515275Y-66073208D01*
X108520347Y-66073328D01*
X108570596Y-66080864D01*
X108606440Y-66108511D01*
X108618867Y-66124666D01*
X108661053Y-66165212D01*
X108696469Y-66175466D01*
X108739072Y-66190948D01*
X108769566Y-66227539D01*
X108801735Y-66270863D01*
X108835883Y-66303866D01*
X108837050Y-66304699D01*
X108866986Y-66344616D01*
X108872867Y-66377343D01*
X108883451Y-66425291D01*
X108906645Y-66467841D01*
X108931486Y-66518135D01*
X108930333Y-66561239D01*
X108933958Y-66624408D01*
X108950198Y-66657415D01*
X108969389Y-66691850D01*
X108968728Y-66718551D01*
X108952090Y-66750642D01*
X108934590Y-66785339D01*
X108936343Y-66805769D01*
X108949247Y-66819082D01*
X108972488Y-66851376D01*
X108962013Y-66882231D01*
X108938825Y-66900778D01*
X108903183Y-66923037D01*
X108938825Y-66960976D01*
X108968639Y-67000628D01*
X108968702Y-67027143D01*
X108938663Y-67044198D01*
X108930643Y-67046394D01*
X108901116Y-67056153D01*
X108897783Y-67071276D01*
X108914413Y-67099508D01*
X108932249Y-67141224D01*
X108923249Y-67167410D01*
X108896833Y-67174533D01*
X108881758Y-67178400D01*
X108884037Y-67195875D01*
X108897157Y-67223186D01*
X108912998Y-67265203D01*
X108903885Y-67287004D01*
X108869449Y-67293066D01*
X108847967Y-67297898D01*
X108851573Y-67318386D01*
X108855934Y-67326933D01*
X108864785Y-67350567D01*
X108851385Y-67359565D01*
X108823086Y-67360800D01*
X108788522Y-67363607D01*
X108777976Y-67379005D01*
X108782683Y-67413645D01*
X108793252Y-67466490D01*
X108750396Y-67438410D01*
X108707541Y-67410330D01*
X108695522Y-67474399D01*
X108683502Y-67538468D01*
X108651790Y-67499306D01*
X108620079Y-67460144D01*
X108609170Y-67503605D01*
X108593474Y-67539812D01*
X108573328Y-67542591D01*
X108552490Y-67517433D01*
X108540219Y-67501051D01*
X108535441Y-67513186D01*
X108534715Y-67534366D01*
X108527362Y-67571750D01*
X108509501Y-67578440D01*
X108485696Y-67552890D01*
X108484757Y-67551299D01*
X108471260Y-67531273D01*
X108467277Y-67540810D01*
X108466982Y-67550197D01*
X108472473Y-67587027D01*
X108483781Y-67624267D01*
X108497949Y-67652851D01*
X108518618Y-67663394D01*
X108557745Y-67660684D01*
X108570002Y-67658788D01*
X108633492Y-67642789D01*
X108695853Y-67618573D01*
X108700854Y-67616088D01*
X108782334Y-67560082D01*
X108864214Y-67478370D01*
X108940881Y-67378574D01*
X109006724Y-67268317D01*
X109056130Y-67155221D01*
X109068319Y-67117012D01*
X109084324Y-67031663D01*
X109091912Y-66925182D01*
X109091504Y-66808211D01*
X109083522Y-66691394D01*
X109068385Y-66585374D01*
X109046515Y-66500794D01*
X109043650Y-66493084D01*
X108982924Y-66372357D01*
X108899090Y-66257064D01*
X108798872Y-66153978D01*
X108688991Y-66069871D01*
X108576171Y-66011516D01*
X108559600Y-66005468D01*
X108468880Y-65981770D01*
X108363164Y-65965754D01*
X108254493Y-65958294D01*
X108154907Y-65960262D01*
X108082801Y-65970867D01*
X108026312Y-65990292D01*
X107956632Y-66021773D01*
X107888724Y-66058541D01*
X107887921Y-66059023D01*
X107826651Y-66093804D01*
X107770238Y-66122351D01*
X107729944Y-66139005D01*
X107727054Y-66139848D01*
X107679067Y-66152861D01*
X107737183Y-66183126D01*
X107761481Y-66194374D01*
X107787585Y-66201950D01*
X107820672Y-66205845D01*
X107865918Y-66206049D01*
X107928500Y-66202553D01*
X108013593Y-66195349D01*
X108126373Y-66184427D01*
X108146517Y-66182416D01*
X108241046Y-66179400D01*
X108323234Y-66193495D01*
X108405238Y-66227966D01*
X108477016Y-66271178D01*
X108577401Y-66356858D01*
X108652521Y-66464195D01*
X108701449Y-66591299D01*
X108723261Y-66736281D01*
X108724376Y-66776599D01*
X108715008Y-66896277D01*
X108687079Y-66997115D01*
X108642405Y-67075711D01*
X108582804Y-67128663D01*
X108524825Y-67150421D01*
X108473914Y-67150323D01*
X108419115Y-67130046D01*
X108358055Y-67087617D01*
X108288358Y-67021063D01*
X108207652Y-66928412D01*
X108115644Y-66810466D01*
X108062472Y-66741986D01*
X108007128Y-66674475D01*
X107958685Y-66618876D01*
X107942506Y-66601633D01*
X107844135Y-66520717D01*
X107737425Y-66468878D01*
X107626870Y-66446647D01*
X107516962Y-66454555D01*
X107412196Y-66493133D01*
X107352757Y-66531935D01*
X107314313Y-66561881D01*
X107230846Y-66561881D01*
X107252998Y-66545582D01*
X107267923Y-66532960D01*
X107367047Y-66460625D01*
X107467676Y-66418675D01*
X107577149Y-66404135D01*
X107585934Y-66404066D01*
X107677140Y-66410230D01*
X107760621Y-66430533D01*
X107840215Y-66467690D01*
X107919762Y-66524415D01*
X108003101Y-66603424D01*
X108094070Y-66707432D01*
X108191338Y-66832247D01*
X108275801Y-66940185D01*
X108347116Y-67019686D01*
X108408001Y-67072231D01*
X108461177Y-67099302D01*
X108509361Y-67102379D01*
X108555275Y-67082945D01*
X108593202Y-67051185D01*
X108641709Y-66980560D01*
X108671776Y-66889009D01*
X108682908Y-66784325D01*
X108674615Y-66674301D01*
X108646404Y-66566730D01*
X108626735Y-66520491D01*
X108564014Y-66422885D01*
X108480373Y-66338390D01*
X108384681Y-66274939D01*
X108324456Y-66250045D01*
X108275086Y-66236057D01*
X108231277Y-66228956D01*
X108182275Y-66228332D01*
X108117329Y-66233776D01*
X108063733Y-66240092D01*
X107967443Y-66251408D01*
X107897147Y-66257577D01*
X107845346Y-66258443D01*
X107804537Y-66253852D01*
X107767221Y-66243650D01*
X107739981Y-66233416D01*
X107676972Y-66193753D01*
X107646505Y-66150424D01*
X107626223Y-66104405D01*
X107624356Y-66082318D01*
X107643877Y-66077952D01*
X107678620Y-66083366D01*
X107713909Y-66086437D01*
X107748971Y-66078969D01*
X107793326Y-66057658D01*
X107848188Y-66024456D01*
X107974513Y-65957999D01*
X108102288Y-65919769D01*
X108241216Y-65907380D01*
X108314067Y-65909868D01*
X108478375Y-65932179D01*
X108621486Y-65977322D01*
X108749548Y-66048152D01*
X108868711Y-66147522D01*
X108903977Y-66183681D01*
X108989368Y-66285167D01*
X109053389Y-66387069D01*
X109098372Y-66496167D01*
X109126651Y-66619241D01*
X109140560Y-66763071D01*
X109142997Y-66878199D01*
X109139982Y-66997769D01*
X109129638Y-67093976D01*
X109109422Y-67176988D01*
X109076787Y-67256970D01*
X109029190Y-67344087D01*
X109024313Y-67352246D01*
X108931453Y-67486402D01*
X108831990Y-67589302D01*
X108723163Y-67663337D01*
X108614024Y-67707535D01*
X108568857Y-67723782D01*
X108548065Y-67742731D01*
X108542700Y-67773137D01*
X108542667Y-67777369D01*
X108548394Y-67813435D01*
X108572537Y-67830232D01*
X108593467Y-67834875D01*
X108635576Y-67854105D01*
X108649938Y-67889179D01*
X108635314Y-67934869D01*
X108621707Y-67954164D01*
X108580280Y-67982171D01*
X108516401Y-67999272D01*
X108439880Y-68004872D01*
X108360524Y-67998374D01*
X108288142Y-67979183D01*
X108278209Y-67975047D01*
X108221772Y-67952139D01*
X108169167Y-67933977D01*
X108154834Y-67929955D01*
X108111517Y-67912906D01*
X108057952Y-67883769D01*
X108033250Y-67867824D01*
X107990866Y-67839640D01*
X107960979Y-67821578D01*
X107952794Y-67817999D01*
X107948946Y-67832560D01*
X107951334Y-67868650D01*
X107958235Y-67914880D01*
X107967926Y-67959859D01*
X107978684Y-67992200D01*
X107979346Y-67993529D01*
X107994609Y-68012297D01*
X108020886Y-68018870D01*
X108068473Y-68015431D01*
X108077241Y-68014299D01*
X108131511Y-68010026D01*
X108167909Y-68017505D01*
X108201359Y-68040055D01*
X108204249Y-68042518D01*
X108230389Y-68070268D01*
X108246038Y-68104541D01*
X108255161Y-68156268D01*
X108258520Y-68192162D01*
X108261248Y-68262052D01*
X108254158Y-68317980D01*
X108233377Y-68366467D01*
X108195031Y-68414036D01*
X108135244Y-68467206D01*
X108061225Y-68524253D01*
X108067417Y-68538333D01*
X108091459Y-68567799D01*
X108107791Y-68585293D01*
X108144085Y-68632836D01*
X108161189Y-68676911D01*
X108161667Y-68683687D01*
X108146662Y-68730567D01*
X108107859Y-68774477D01*
X108054579Y-68805361D01*
X108046344Y-68808119D01*
X108019138Y-68822550D01*
X108014482Y-68849759D01*
X108017745Y-68867915D01*
X108020291Y-68922461D01*
X108009467Y-68982533D01*
X107988928Y-69035509D01*
X107962328Y-69068767D01*
X107959005Y-69070778D01*
X107918180Y-69083578D01*
X107876016Y-69088000D01*
X107799563Y-69098258D01*
X107745325Y-69126646D01*
X107716491Y-69169579D01*
X107716247Y-69223475D01*
X107728219Y-69254145D01*
X107753344Y-69326205D01*
X107748183Y-69390403D01*
X107711576Y-69450134D01*
X107642364Y-69508796D01*
X107640967Y-69509757D01*
X107605822Y-69537826D01*
X107586956Y-69560612D01*
X107585934Y-69564588D01*
X107596983Y-69586366D01*
X107624565Y-69619884D01*
X107635431Y-69631169D01*
X107685477Y-69668634D01*
X107740837Y-69680605D01*
X107746094Y-69680666D01*
X107785515Y-69682344D01*
X107797815Y-69691301D01*
X107789711Y-69713420D01*
X107787735Y-69717147D01*
X107768211Y-69753627D01*
X107829473Y-69715766D01*
X107871028Y-69694184D01*
X107889038Y-69694116D01*
X107884106Y-69713330D01*
X107856833Y-69749593D01*
X107807821Y-69800673D01*
X107806123Y-69802312D01*
X107721513Y-69883866D01*
X107775643Y-69883866D01*
X107810380Y-69886371D01*
X107816124Y-69895823D01*
X107808889Y-69904751D01*
X107773090Y-69920956D01*
X107716315Y-69926744D01*
X107649589Y-69922784D01*
X107583938Y-69909747D01*
X107530387Y-69888300D01*
X107529512Y-69887788D01*
X107493948Y-69869050D01*
X107476437Y-69864420D01*
X107476697Y-69868276D01*
X107497977Y-69888921D01*
X107534997Y-69915121D01*
X107540099Y-69918276D01*
X107592168Y-69949942D01*
X107435907Y-69949199D01*
X107360983Y-69948159D01*
X107310328Y-69944360D01*
X107274349Y-69935498D01*
X107243453Y-69919270D01*
X107210151Y-69894995D01*
X107162676Y-69851990D01*
X107123151Y-69805200D01*
X107111665Y-69786951D01*
X107090360Y-69754277D01*
X107074139Y-69742156D01*
X107071838Y-69743206D01*
X107061499Y-69772922D01*
X107065082Y-69813585D01*
X107080838Y-69846120D01*
X107081320Y-69846613D01*
X107092615Y-69863538D01*
X107081980Y-69866933D01*
X107051159Y-69852793D01*
X107020024Y-69818629D01*
X106998087Y-69776828D01*
X106993267Y-69751439D01*
X107002116Y-69709766D01*
X107023872Y-69660898D01*
X107028475Y-69653096D01*
X107063683Y-69596128D01*
X107027748Y-69549497D01*
X106980157Y-69488229D01*
X106950473Y-69451501D01*
X106936330Y-69436725D01*
X106935362Y-69441312D01*
X106941511Y-69455186D01*
X106959099Y-69521683D01*
X106945136Y-69578143D01*
X106901363Y-69620570D01*
X106862034Y-69637471D01*
X106830961Y-69660810D01*
X106825885Y-69696494D01*
X106843972Y-69727797D01*
X106855291Y-69751326D01*
X106843547Y-69763110D01*
X106824940Y-69757488D01*
X106799178Y-69729197D01*
X106777169Y-69685989D01*
X106765471Y-69643169D01*
X106766839Y-69621846D01*
X106788480Y-69595323D01*
X106825928Y-69569568D01*
X106825986Y-69569538D01*
X106859740Y-69545877D01*
X106874692Y-69523117D01*
X106874734Y-69522179D01*
X106861690Y-69501978D01*
X106827529Y-69470481D01*
X106780665Y-69435241D01*
X106700828Y-69373095D01*
X106652968Y-69318007D01*
X106636295Y-69268469D01*
X106650021Y-69222973D01*
X106661734Y-69207866D01*
X106688696Y-69167269D01*
X106684457Y-69139345D01*
X106648858Y-69123232D01*
X106646134Y-69122699D01*
X106604942Y-69105655D01*
X106589923Y-69075191D01*
X106573107Y-69043419D01*
X106551823Y-69037200D01*
X106506584Y-69021885D01*
X106470929Y-68982300D01*
X106452458Y-68927984D01*
X106451401Y-68911199D01*
X106455887Y-68869021D01*
X106466840Y-68843616D01*
X106468334Y-68842466D01*
X106485023Y-68822145D01*
X106470868Y-68805174D01*
X106438701Y-68797024D01*
X106400485Y-68783063D01*
X106386686Y-68753286D01*
X106364826Y-68715540D01*
X106325517Y-68691624D01*
X106292011Y-68674384D01*
X106273932Y-68651439D01*
X106264760Y-68611566D01*
X106261427Y-68581247D01*
X106251598Y-68525745D01*
X106236063Y-68484768D01*
X106227239Y-68473576D01*
X106209703Y-68441869D01*
X106196383Y-68379865D01*
X106190957Y-68331654D01*
X106182640Y-68250256D01*
X106173404Y-68198094D01*
X106161589Y-68170545D01*
X106145535Y-68162987D01*
X106131715Y-68166745D01*
X106100440Y-68179164D01*
X106050967Y-68197563D01*
X106019600Y-68208851D01*
X105934934Y-68238932D01*
X105929855Y-68430632D01*
X105934425Y-68617193D01*
X105960274Y-68783865D01*
X106009830Y-68936974D01*
X106085519Y-69082847D01*
X106189767Y-69227809D01*
X106271860Y-69322231D01*
X106326805Y-69382407D01*
X106372268Y-69433282D01*
X106403900Y-69469908D01*
X106417348Y-69487337D01*
X106417534Y-69487927D01*
X106406165Y-69489966D01*
X106374376Y-69470617D01*
X106325639Y-69432493D01*
X106263430Y-69378205D01*
X106227754Y-69345248D01*
X106096803Y-69206286D01*
X105995710Y-69061603D01*
X105922228Y-68906168D01*
X105874110Y-68734949D01*
X105849107Y-68542916D01*
X105846206Y-68491100D01*
X105841878Y-68410074D01*
X105836673Y-68342915D01*
X105831205Y-68295968D01*
X105826085Y-68275576D01*
X105825386Y-68275200D01*
X105807082Y-68286360D01*
X105777813Y-68313590D01*
X105774377Y-68317203D01*
X105739439Y-68345247D01*
X105696138Y-68356741D01*
X105657125Y-68357803D01*
X105595744Y-68359614D01*
X105538658Y-68365855D01*
X105525974Y-68368275D01*
X105487182Y-68372949D01*
X105468050Y-68360872D01*
X105461790Y-68346049D01*
X105459276Y-68288336D01*
X105520864Y-68288336D01*
X105524389Y-68301267D01*
X105549347Y-68294533D01*
X105552821Y-68292729D01*
X105591144Y-68281161D01*
X105643095Y-68275358D01*
X105652347Y-68275200D01*
X105705833Y-68268162D01*
X105740237Y-68249723D01*
X105740968Y-68248875D01*
X105767480Y-68223455D01*
X105804725Y-68201790D01*
X105859982Y-68180570D01*
X105940528Y-68156484D01*
X105949506Y-68153997D01*
X106062758Y-68116253D01*
X106154964Y-68068488D01*
X106238776Y-68003000D01*
X106302058Y-67939440D01*
X106380623Y-67843097D01*
X106438745Y-67742442D01*
X106482727Y-67625526D01*
X106499285Y-67565614D01*
X106514325Y-67509845D01*
X106524077Y-67484316D01*
X106530150Y-67486107D01*
X106533286Y-67503891D01*
X106533639Y-67545231D01*
X106529229Y-67607115D01*
X106520997Y-67676705D01*
X106520229Y-67682026D01*
X106509986Y-67784977D01*
X106514244Y-67868208D01*
X106534322Y-67943191D01*
X106555789Y-67991566D01*
X106572434Y-68030257D01*
X106576833Y-68052684D01*
X106574511Y-68054950D01*
X106556553Y-68041344D01*
X106530722Y-68007706D01*
X106503881Y-67964500D01*
X106482895Y-67922187D01*
X106477387Y-67906899D01*
X106462460Y-67878797D01*
X106445044Y-67868098D01*
X106434804Y-67879741D01*
X106434467Y-67884976D01*
X106423372Y-67903922D01*
X106393929Y-67939758D01*
X106351904Y-67985589D01*
X106339971Y-67997941D01*
X106245475Y-68094730D01*
X106257622Y-68256760D01*
X106267200Y-68350094D01*
X106279459Y-68409999D01*
X106293707Y-68436293D01*
X106309938Y-68462382D01*
X106324343Y-68509090D01*
X106329670Y-68537867D01*
X106340583Y-68591546D01*
X106356164Y-68619264D01*
X106375382Y-68628191D01*
X106425465Y-68648840D01*
X106449883Y-68684796D01*
X106451401Y-68698157D01*
X106467443Y-68725193D01*
X106506434Y-68743215D01*
X106549694Y-68766906D01*
X106567801Y-68801068D01*
X106557699Y-68837296D01*
X106545351Y-68850255D01*
X106523248Y-68885603D01*
X106527965Y-68924645D01*
X106554520Y-68959431D01*
X106597928Y-68982013D01*
X106630685Y-68986400D01*
X106676507Y-68999865D01*
X106724915Y-69033637D01*
X106763258Y-69077778D01*
X106774117Y-69099051D01*
X106779315Y-69146574D01*
X106761997Y-69208269D01*
X106745937Y-69252203D01*
X106744325Y-69278434D01*
X106758281Y-69300395D01*
X106770745Y-69313270D01*
X106807000Y-69349525D01*
X106807000Y-69287695D01*
X106810583Y-69248600D01*
X106826209Y-69219558D01*
X106861196Y-69189693D01*
X106883200Y-69174439D01*
X106959400Y-69123012D01*
X106959400Y-69190172D01*
X106961169Y-69233290D01*
X106972579Y-69252358D01*
X107002785Y-69257189D01*
X107022054Y-69257333D01*
X107061197Y-69259629D01*
X107071254Y-69267978D01*
X107064387Y-69277653D01*
X107043933Y-69319413D01*
X107048613Y-69370694D01*
X107074718Y-69423269D01*
X107118537Y-69468912D01*
X107162027Y-69494162D01*
X107198703Y-69515815D01*
X107212226Y-69548051D01*
X107213401Y-69571857D01*
X107220109Y-69627858D01*
X107234567Y-69675259D01*
X107255734Y-69722245D01*
X107261291Y-69663356D01*
X107273222Y-69613361D01*
X107294370Y-69573926D01*
X107295158Y-69573031D01*
X107328899Y-69544688D01*
X107375864Y-69515041D01*
X107385367Y-69510003D01*
X107451565Y-69464636D01*
X107497965Y-69409277D01*
X107518304Y-69351727D01*
X107518715Y-69343949D01*
X107520588Y-69314608D01*
X107528106Y-69316104D01*
X107537555Y-69331203D01*
X107547404Y-69368769D01*
X107547107Y-69418606D01*
X107546313Y-69424336D01*
X107536745Y-69485933D01*
X107568582Y-69447469D01*
X107595689Y-69423723D01*
X107611617Y-69427124D01*
X107630934Y-69433610D01*
X107658441Y-69415201D01*
X107686791Y-69377093D01*
X107689618Y-69371971D01*
X107696469Y-69340545D01*
X107684206Y-69298337D01*
X107671761Y-69272690D01*
X107650018Y-69223726D01*
X107637744Y-69182025D01*
X107636734Y-69172145D01*
X107623471Y-69145430D01*
X107584500Y-69139377D01*
X107521044Y-69154116D01*
X107508464Y-69158498D01*
X107463458Y-69169175D01*
X107421763Y-69161675D01*
X107394636Y-69150031D01*
X107351585Y-69131733D01*
X107320478Y-69122239D01*
X107316675Y-69121866D01*
X107298893Y-69110903D01*
X107298067Y-69106336D01*
X107313981Y-69094238D01*
X107357855Y-69080427D01*
X107423888Y-69065855D01*
X107506277Y-69051474D01*
X107599222Y-69038237D01*
X107696921Y-69027095D01*
X107793572Y-69019001D01*
X107848401Y-69016014D01*
X107950001Y-69011800D01*
X107955040Y-68925177D01*
X107956921Y-68874114D01*
X107951611Y-68847126D01*
X107934255Y-68834505D01*
X107906356Y-68827811D01*
X107803245Y-68817721D01*
X107683099Y-68826359D01*
X107590237Y-68842691D01*
X107456856Y-68858243D01*
X107341252Y-68845734D01*
X107244043Y-68805331D01*
X107165844Y-68737202D01*
X107155971Y-68724837D01*
X107126581Y-68681686D01*
X107088576Y-68619560D01*
X107048718Y-68549656D01*
X107035929Y-68526074D01*
X106998829Y-68462038D01*
X106962321Y-68408146D01*
X106932265Y-68372721D01*
X106922652Y-68365163D01*
X106896966Y-68349384D01*
X106900078Y-68344647D01*
X106933963Y-68346910D01*
X106975814Y-68360006D01*
X107012393Y-68395771D01*
X107026855Y-68416684D01*
X107068984Y-68481969D01*
X107089912Y-68430680D01*
X107110426Y-68391126D01*
X107130790Y-68367068D01*
X107131131Y-68366851D01*
X107143755Y-68365100D01*
X107138127Y-68386722D01*
X107113194Y-68457685D01*
X107107349Y-68512703D01*
X107121657Y-68564502D01*
X107157185Y-68625809D01*
X107158273Y-68627452D01*
X107218913Y-68704134D01*
X107285647Y-68756605D01*
X107363424Y-68786264D01*
X107457196Y-68794512D01*
X107571914Y-68782748D01*
X107651561Y-68766959D01*
X107735712Y-68751012D01*
X107821728Y-68739500D01*
X107894863Y-68734257D01*
X107914448Y-68734237D01*
X108007661Y-68732109D01*
X108068698Y-68719647D01*
X108097662Y-68696753D01*
X108094660Y-68663334D01*
X108059795Y-68619293D01*
X108050384Y-68610449D01*
X108006965Y-68576038D01*
X107966892Y-68561456D01*
X107912184Y-68560220D01*
X107911194Y-68560268D01*
X107831467Y-68564198D01*
X107950001Y-68505484D01*
X108064753Y-68438113D01*
X108146108Y-68366161D01*
X108194249Y-68289435D01*
X108208068Y-68234768D01*
X108208772Y-68168738D01*
X108191594Y-68119209D01*
X108187490Y-68112602D01*
X108165893Y-68085333D01*
X108140863Y-68074526D01*
X108099562Y-68076057D01*
X108081132Y-68078435D01*
X108017964Y-68078280D01*
X107963088Y-68056752D01*
X107912260Y-68010520D01*
X107861233Y-67936252D01*
X107831798Y-67882731D01*
X107790809Y-67809315D01*
X107739058Y-67724252D01*
X107717528Y-67691256D01*
X107789134Y-67691256D01*
X107796669Y-67710375D01*
X107815702Y-67746855D01*
X107840873Y-67791483D01*
X107866824Y-67835045D01*
X107888196Y-67868330D01*
X107899629Y-67882123D01*
X107900095Y-67882016D01*
X107898732Y-67864289D01*
X107889850Y-67823619D01*
X107878324Y-67779645D01*
X107859171Y-67721398D01*
X107840642Y-67690966D01*
X107820214Y-67682533D01*
X107794204Y-67686496D01*
X107789134Y-67691256D01*
X107717528Y-67691256D01*
X107686054Y-67643021D01*
X107675287Y-67627420D01*
X107745309Y-67627420D01*
X107764693Y-67626858D01*
X107803719Y-67615514D01*
X107824412Y-67607744D01*
X107874687Y-67591370D01*
X107903303Y-67589873D01*
X107906657Y-67602789D01*
X107895367Y-67616940D01*
X107881361Y-67651567D01*
X107898568Y-67694334D01*
X107945771Y-67743622D01*
X108021750Y-67797814D01*
X108039760Y-67808782D01*
X108099816Y-67843262D01*
X108149990Y-67869754D01*
X108182451Y-67884217D01*
X108188916Y-67885733D01*
X108215229Y-67892323D01*
X108259126Y-67909014D01*
X108282585Y-67919228D01*
X108351099Y-67941360D01*
X108426035Y-67951691D01*
X108495975Y-67949834D01*
X108549498Y-67935405D01*
X108560597Y-67928605D01*
X108578191Y-67909988D01*
X108572300Y-67903205D01*
X108538767Y-67888368D01*
X108506343Y-67854051D01*
X108485850Y-67813217D01*
X108483400Y-67796706D01*
X108473828Y-67766441D01*
X108448217Y-67717792D01*
X108411232Y-67659180D01*
X108391982Y-67631606D01*
X108346761Y-67563855D01*
X108306599Y-67494832D01*
X108278341Y-67436579D01*
X108272965Y-67422282D01*
X108217212Y-67292437D01*
X108144779Y-67181820D01*
X108059538Y-67095459D01*
X107983604Y-67046663D01*
X107911759Y-67018881D01*
X107853368Y-67009883D01*
X107812257Y-67017738D01*
X107792252Y-67040514D01*
X107797181Y-67076282D01*
X107830869Y-67123108D01*
X107831284Y-67123542D01*
X107876146Y-67191322D01*
X107896860Y-67269793D01*
X107890941Y-67347340D01*
X107883687Y-67368480D01*
X107869395Y-67409894D01*
X107871590Y-67433581D01*
X107881722Y-67445014D01*
X107904418Y-67475536D01*
X107914565Y-67511240D01*
X107908512Y-67537421D01*
X107905336Y-67540040D01*
X107880299Y-67539312D01*
X107866542Y-67531136D01*
X107847937Y-67524069D01*
X107835718Y-67545427D01*
X107833159Y-67554820D01*
X107807213Y-67594858D01*
X107779621Y-67608109D01*
X107750979Y-67618728D01*
X107745309Y-67627420D01*
X107675287Y-67627420D01*
X107672420Y-67623266D01*
X107583402Y-67496266D01*
X107662134Y-67496266D01*
X107663476Y-67511870D01*
X107669601Y-67513200D01*
X107686845Y-67500907D01*
X107687534Y-67496266D01*
X107681756Y-67479773D01*
X107680067Y-67479333D01*
X107665609Y-67491199D01*
X107662134Y-67496266D01*
X107583402Y-67496266D01*
X107577467Y-67487800D01*
X107577467Y-67349464D01*
X107578561Y-67278433D01*
X107583251Y-67231875D01*
X107593647Y-67200428D01*
X107611860Y-67174732D01*
X107618519Y-67167430D01*
X107665369Y-67131550D01*
X107707468Y-67126812D01*
X107736347Y-67146739D01*
X107744549Y-67170572D01*
X107729221Y-67202536D01*
X107720258Y-67214472D01*
X107697724Y-67244738D01*
X107696044Y-67256893D01*
X107714820Y-67259194D01*
X107718098Y-67259199D01*
X107756630Y-67271537D01*
X107772192Y-67284589D01*
X107782316Y-67301219D01*
X107768784Y-67304279D01*
X107742486Y-67299823D01*
X107706267Y-67296935D01*
X107683196Y-67312154D01*
X107664222Y-67344769D01*
X107646024Y-67384335D01*
X107636961Y-67410094D01*
X107636734Y-67412121D01*
X107651165Y-67419601D01*
X107687258Y-67419170D01*
X107734214Y-67412568D01*
X107781232Y-67401536D01*
X107817512Y-67387814D01*
X107827234Y-67381422D01*
X107854096Y-67337256D01*
X107856921Y-67279107D01*
X107836736Y-67215770D01*
X107801834Y-67163942D01*
X107764087Y-67110211D01*
X107735597Y-67050721D01*
X107729867Y-67032120D01*
X107717654Y-66989939D01*
X107700848Y-66968912D01*
X107668414Y-66960501D01*
X107633749Y-66957756D01*
X107578467Y-66958067D01*
X107538576Y-66971745D01*
X107499465Y-67001877D01*
X107444367Y-67051107D01*
X107481284Y-67082717D01*
X107511796Y-67125826D01*
X107514840Y-67171082D01*
X107495120Y-67210063D01*
X107457344Y-67234346D01*
X107406217Y-67235510D01*
X107397282Y-67233042D01*
X107370859Y-67216798D01*
X107368604Y-67199352D01*
X107391201Y-67191466D01*
X107414926Y-67183017D01*
X107414278Y-67162430D01*
X107410211Y-67157600D01*
X107457724Y-67157600D01*
X107463177Y-67179197D01*
X107474416Y-67174291D01*
X107481090Y-67150310D01*
X107474416Y-67140908D01*
X107460891Y-67138288D01*
X107457724Y-67157600D01*
X107410211Y-67157600D01*
X107392728Y-67136842D01*
X107353746Y-67113392D01*
X107353101Y-67113117D01*
X107273115Y-67077728D01*
X107218575Y-67049345D01*
X107183020Y-67023628D01*
X107159984Y-66996237D01*
X107148918Y-66976013D01*
X107126235Y-66939901D01*
X107097671Y-66923782D01*
X107056118Y-66926872D01*
X106994467Y-66948387D01*
X106974546Y-66956783D01*
X106916066Y-66977938D01*
X106861143Y-66986201D01*
X106792703Y-66983875D01*
X106781394Y-66982866D01*
X106690741Y-66980655D01*
X106599612Y-66993337D01*
X106549255Y-67005484D01*
X106482526Y-67021731D01*
X106423096Y-67033585D01*
X106383178Y-67038632D01*
X106381502Y-67038668D01*
X106302690Y-67053012D01*
X106214766Y-67091202D01*
X106125795Y-67147898D01*
X106043843Y-67217760D01*
X105976974Y-67295446D01*
X105963643Y-67315333D01*
X105910329Y-67409954D01*
X105859939Y-67517641D01*
X105816194Y-67628714D01*
X105782817Y-67733490D01*
X105763532Y-67822288D01*
X105761282Y-67841597D01*
X105748860Y-67917675D01*
X105728144Y-67973940D01*
X105720288Y-67986002D01*
X105695758Y-68028977D01*
X105674237Y-68085037D01*
X105669970Y-68100302D01*
X105656226Y-68144347D01*
X105642944Y-68170487D01*
X105638381Y-68173600D01*
X105618910Y-68184199D01*
X105585860Y-68210765D01*
X105572658Y-68222727D01*
X105537408Y-68260551D01*
X105520864Y-68288336D01*
X105459276Y-68288336D01*
X105459069Y-68283603D01*
X105489032Y-68220072D01*
X105537672Y-68168487D01*
X105578660Y-68125453D01*
X105607850Y-68080362D01*
X105614354Y-68062974D01*
X105630477Y-68017107D01*
X105656615Y-67961490D01*
X105667656Y-67941368D01*
X105698359Y-67878299D01*
X105703284Y-67833658D01*
X105680063Y-67801816D01*
X105626330Y-67777144D01*
X105594639Y-67767715D01*
X105450703Y-67714260D01*
X105327453Y-67636509D01*
X105218341Y-67530295D01*
X105214572Y-67525862D01*
X105124440Y-67406724D01*
X105058354Y-67288058D01*
X105013753Y-67162295D01*
X104988080Y-67021868D01*
X104978774Y-66859206D01*
X104978638Y-66828075D01*
X104979114Y-66797052D01*
X105021326Y-66797052D01*
X105026626Y-66926665D01*
X105043537Y-67055231D01*
X105070683Y-67169021D01*
X105081060Y-67199411D01*
X105136868Y-67318035D01*
X105211307Y-67431546D01*
X105298126Y-67532474D01*
X105391070Y-67613353D01*
X105465451Y-67658514D01*
X105518263Y-67680085D01*
X105578631Y-67699282D01*
X105636905Y-67713735D01*
X105683439Y-67721075D01*
X105708583Y-67718931D01*
X105709249Y-67718405D01*
X105719217Y-67696388D01*
X105730035Y-67654439D01*
X105732799Y-67640199D01*
X105744966Y-67572466D01*
X105709280Y-67614799D01*
X105673594Y-67657133D01*
X105673031Y-67599475D01*
X105671254Y-67562064D01*
X105663275Y-67553305D01*
X105643552Y-67567991D01*
X105641500Y-67569842D01*
X105610901Y-67593330D01*
X105593450Y-67589869D01*
X105581483Y-67556431D01*
X105578907Y-67545122D01*
X105567322Y-67492377D01*
X105537221Y-67538263D01*
X105515455Y-67566220D01*
X105500364Y-67567768D01*
X105487974Y-67540287D01*
X105478122Y-67499326D01*
X105468437Y-67462978D01*
X105456968Y-67454886D01*
X105436697Y-67469693D01*
X105403850Y-67493220D01*
X105388330Y-67487739D01*
X105389163Y-67452741D01*
X105390527Y-67445466D01*
X105394852Y-67411543D01*
X105383422Y-67397542D01*
X105347715Y-67394678D01*
X105341248Y-67394666D01*
X105302740Y-67392740D01*
X105291257Y-67383253D01*
X105299934Y-67360800D01*
X105308916Y-67335954D01*
X105293385Y-67327569D01*
X105275130Y-67326933D01*
X105241633Y-67320723D01*
X105234645Y-67299590D01*
X105253373Y-67259780D01*
X105259091Y-67250834D01*
X105275869Y-67221151D01*
X105269208Y-67207200D01*
X105242158Y-67198794D01*
X105205910Y-67183906D01*
X105202452Y-67163714D01*
X105223734Y-67140666D01*
X105244833Y-67112228D01*
X105246956Y-67085473D01*
X105229336Y-67072722D01*
X105227967Y-67072674D01*
X105195688Y-67063911D01*
X105181844Y-67056632D01*
X105168577Y-67042060D01*
X105176797Y-67021479D01*
X105197496Y-66997625D01*
X105238104Y-66954400D01*
X105198501Y-66912244D01*
X105173084Y-66882174D01*
X105169961Y-66862217D01*
X105187143Y-66838876D01*
X105187619Y-66838351D01*
X105205455Y-66814520D01*
X105205510Y-66792142D01*
X105187581Y-66756507D01*
X105186464Y-66754558D01*
X105167849Y-66718316D01*
X105168001Y-66695093D01*
X105188154Y-66668931D01*
X105193528Y-66663182D01*
X105217634Y-66630095D01*
X105222132Y-66594278D01*
X105216373Y-66561370D01*
X105210067Y-66515057D01*
X105219827Y-66485443D01*
X105233842Y-66470314D01*
X105258339Y-66434337D01*
X105275575Y-66385123D01*
X105276468Y-66380575D01*
X105305412Y-66313361D01*
X105343517Y-66272437D01*
X105381234Y-66235258D01*
X105406599Y-66200169D01*
X105410126Y-66192004D01*
X105432626Y-66165209D01*
X105470408Y-66158533D01*
X105514067Y-66148075D01*
X105555716Y-66122561D01*
X105583168Y-66090779D01*
X105587801Y-66073866D01*
X105602835Y-66063316D01*
X105640445Y-66057397D01*
X105656375Y-66056933D01*
X105716029Y-66049872D01*
X105771649Y-66032593D01*
X105777462Y-66029777D01*
X105851380Y-66010142D01*
X105891565Y-66012470D01*
X105950903Y-66014333D01*
X106013074Y-66005690D01*
X106018424Y-66004297D01*
X106091714Y-65996080D01*
X106179399Y-66003577D01*
X106267419Y-66024142D01*
X106341711Y-66055130D01*
X106363613Y-66069233D01*
X106401128Y-66101100D01*
X106408492Y-66117863D01*
X106385985Y-66119272D01*
X106333891Y-66105080D01*
X106325935Y-66102409D01*
X106269474Y-66087096D01*
X106226670Y-66087373D01*
X106197657Y-66095886D01*
X106152158Y-66106874D01*
X106116890Y-66097179D01*
X106111984Y-66094261D01*
X106070930Y-66082200D01*
X106045724Y-66090412D01*
X106009798Y-66100774D01*
X105956354Y-66106962D01*
X105930532Y-66107733D01*
X105872577Y-66111843D01*
X105833626Y-66127446D01*
X105807934Y-66150066D01*
X105760029Y-66183752D01*
X105705218Y-66192400D01*
X105661682Y-66196193D01*
X105640100Y-66211981D01*
X105631642Y-66234754D01*
X105604978Y-66275968D01*
X105557839Y-66306745D01*
X105514383Y-66332671D01*
X105494351Y-66363624D01*
X105489391Y-66390981D01*
X105469826Y-66447419D01*
X105443369Y-66477633D01*
X105415620Y-66506167D01*
X105411895Y-66538119D01*
X105417335Y-66560985D01*
X105422762Y-66607259D01*
X105406798Y-66653018D01*
X105398209Y-66667929D01*
X105377151Y-66707609D01*
X105374460Y-66737334D01*
X105388724Y-66774639D01*
X105389484Y-66776236D01*
X105404970Y-66817667D01*
X105401815Y-66850326D01*
X105391105Y-66873737D01*
X105377020Y-66907448D01*
X105383894Y-66928107D01*
X105402066Y-66942706D01*
X105424076Y-66964950D01*
X105429919Y-66996644D01*
X105425694Y-67034535D01*
X105420782Y-67078613D01*
X105428526Y-67101705D01*
X105454527Y-67115946D01*
X105465003Y-67119709D01*
X105506029Y-67144900D01*
X105525685Y-67189958D01*
X105526042Y-67191705D01*
X105536920Y-67228577D01*
X105555808Y-67240208D01*
X105583540Y-67237135D01*
X105634402Y-67240722D01*
X105667526Y-67262842D01*
X105704917Y-67297639D01*
X105760659Y-67251781D01*
X105804596Y-67218619D01*
X105863981Y-67177550D01*
X105919608Y-67141494D01*
X105996640Y-67083562D01*
X106088399Y-66997020D01*
X106188075Y-66889364D01*
X106287140Y-66782042D01*
X106374697Y-66699544D01*
X106456394Y-66637495D01*
X106537882Y-66591519D01*
X106610794Y-66561949D01*
X106731600Y-66533733D01*
X106842336Y-66537240D01*
X106946276Y-66573067D01*
X107045949Y-66641170D01*
X107091893Y-66677523D01*
X107128523Y-66701275D01*
X107148047Y-66707387D01*
X107148215Y-66707292D01*
X107156077Y-66717427D01*
X107161303Y-66752892D01*
X107162601Y-66790007D01*
X107166853Y-66877215D01*
X107182704Y-66939430D01*
X107214793Y-66984803D01*
X107267758Y-67021483D01*
X107304701Y-67039650D01*
X107408134Y-67086766D01*
X107413290Y-67048075D01*
X107429051Y-67015177D01*
X107463287Y-66975229D01*
X107485257Y-66955694D01*
X107535854Y-66902421D01*
X107554164Y-66848890D01*
X107539884Y-66793873D01*
X107492713Y-66736140D01*
X107417066Y-66677596D01*
X107377316Y-66654925D01*
X107357713Y-66651740D01*
X107361560Y-66667535D01*
X107374796Y-66684051D01*
X107396894Y-66725216D01*
X107408858Y-66780439D01*
X107409299Y-66787049D01*
X107415836Y-66835320D01*
X107427922Y-66869725D01*
X107431545Y-66874518D01*
X107448742Y-66904797D01*
X107450467Y-66915843D01*
X107443873Y-66927651D01*
X107419998Y-66917983D01*
X107408134Y-66910509D01*
X107377459Y-66880558D01*
X107366321Y-66837087D01*
X107365801Y-66819294D01*
X107351375Y-66753841D01*
X107312955Y-66701951D01*
X107257823Y-66671410D01*
X107222880Y-66666533D01*
X107176887Y-66657175D01*
X107131149Y-66625247D01*
X107110889Y-66605208D01*
X107062891Y-66564107D01*
X106999437Y-66521568D01*
X106950934Y-66495154D01*
X106886707Y-66467661D01*
X106828857Y-66452732D01*
X106761243Y-66446946D01*
X106720805Y-66446413D01*
X106646051Y-66449080D01*
X106580775Y-66459007D01*
X106520540Y-66479056D01*
X106460906Y-66512091D01*
X106397436Y-66560973D01*
X106325691Y-66628566D01*
X106241234Y-66717732D01*
X106160219Y-66808006D01*
X106086384Y-66890369D01*
X106016096Y-66966794D01*
X105953851Y-67032543D01*
X105904146Y-67082878D01*
X105871479Y-67113059D01*
X105868405Y-67115495D01*
X105790227Y-67158173D01*
X105709104Y-67172562D01*
X105632520Y-67158001D01*
X105597779Y-67139324D01*
X105519125Y-67066084D01*
X105466392Y-66974146D01*
X105440102Y-66867208D01*
X105440774Y-66748973D01*
X105468929Y-66623140D01*
X105510811Y-66521066D01*
X105589059Y-66395591D01*
X105686566Y-66295424D01*
X105800645Y-66223162D01*
X105834190Y-66208673D01*
X105876481Y-66193814D01*
X105920561Y-66182823D01*
X105971495Y-66175424D01*
X106034350Y-66171337D01*
X106114191Y-66170285D01*
X106216083Y-66171988D01*
X106345093Y-66176170D01*
X106392843Y-66177982D01*
X106469947Y-66179856D01*
X106522306Y-66177475D01*
X106558908Y-66169615D01*
X106588738Y-66155054D01*
X106596043Y-66150322D01*
X106646134Y-66116712D01*
X106569934Y-66106832D01*
X106512627Y-66091950D01*
X106443331Y-66063381D01*
X106390381Y-66035251D01*
X106325493Y-66000544D01*
X106259458Y-65971619D01*
X106212581Y-65956389D01*
X106138489Y-65945555D01*
X106042435Y-65940274D01*
X105935835Y-65940362D01*
X105830104Y-65945638D01*
X105736657Y-65955918D01*
X105689766Y-65964756D01*
X105537343Y-66017159D01*
X105397547Y-66097377D01*
X105274212Y-66201258D01*
X105171176Y-66324647D01*
X105092275Y-66463391D01*
X105041345Y-66613337D01*
X105029014Y-66680121D01*
X105021326Y-66797052D01*
X104979114Y-66797052D01*
X104980157Y-66729193D01*
X104985040Y-66654072D01*
X104994507Y-66592674D01*
X105009778Y-66534963D01*
X105016932Y-66513154D01*
X105086903Y-66351104D01*
X105178250Y-66214662D01*
X105292607Y-66101918D01*
X105431608Y-66010964D01*
X105458349Y-65997263D01*
X105560013Y-65951139D01*
X105653068Y-65919479D01*
X105748410Y-65899949D01*
X105856936Y-65890213D01*
X105968800Y-65887895D01*
X106081018Y-65889501D01*
G36*
X107452580Y-68163103D02*
X107500256Y-68187169D01*
X107514749Y-68198693D01*
X107561928Y-68254557D01*
X107592406Y-68322786D01*
X107600314Y-68389570D01*
X107599340Y-68397672D01*
X107594041Y-68417534D01*
X107585996Y-68410652D01*
X107571949Y-68374147D01*
X107571593Y-68373120D01*
X107543133Y-68319190D01*
X107502298Y-68270423D01*
X107496885Y-68265644D01*
X107443964Y-68221114D01*
X107430407Y-68257760D01*
X107405775Y-68283762D01*
X107367457Y-68289380D01*
X107328508Y-68275010D01*
X107308328Y-68254033D01*
X107298712Y-68215194D01*
X107319093Y-68183892D01*
X107365784Y-68164132D01*
X107394837Y-68160039D01*
X107452580Y-68163103D01*
X107452580Y-68163103D01*
G37*
X107452580Y-68163103D02*
X107500256Y-68187169D01*
X107514749Y-68198693D01*
X107561928Y-68254557D01*
X107592406Y-68322786D01*
X107600314Y-68389570D01*
X107599340Y-68397672D01*
X107594041Y-68417534D01*
X107585996Y-68410652D01*
X107571949Y-68374147D01*
X107571593Y-68373120D01*
X107543133Y-68319190D01*
X107502298Y-68270423D01*
X107496885Y-68265644D01*
X107443964Y-68221114D01*
X107430407Y-68257760D01*
X107405775Y-68283762D01*
X107367457Y-68289380D01*
X107328508Y-68275010D01*
X107308328Y-68254033D01*
X107298712Y-68215194D01*
X107319093Y-68183892D01*
X107365784Y-68164132D01*
X107394837Y-68160039D01*
X107452580Y-68163103D01*
G36*
X106877034Y-68243904D02*
X106885750Y-68248324D01*
X106866964Y-68259027D01*
X106857800Y-68263322D01*
X106818227Y-68287630D01*
X106795510Y-68308743D01*
X106778185Y-68325279D01*
X106766831Y-68311739D01*
X106764376Y-68305644D01*
X106760607Y-68268786D01*
X106785232Y-68248094D01*
X106837633Y-68242479D01*
X106877034Y-68243904D01*
X106877034Y-68243904D01*
G37*
X106877034Y-68243904D02*
X106885750Y-68248324D01*
X106866964Y-68259027D01*
X106857800Y-68263322D01*
X106818227Y-68287630D01*
X106795510Y-68308743D01*
X106778185Y-68325279D01*
X106766831Y-68311739D01*
X106764376Y-68305644D01*
X106760607Y-68268786D01*
X106785232Y-68248094D01*
X106837633Y-68242479D01*
X106877034Y-68243904D01*
G36*
X107388865Y-67940199D02*
X107446490Y-67950082D01*
X107504043Y-67972140D01*
X107572587Y-68010948D01*
X107595627Y-68025680D01*
X107654151Y-68065314D01*
X107703489Y-68101536D01*
X107735070Y-68127969D01*
X107739554Y-68132736D01*
X107772518Y-68160283D01*
X107814527Y-68183395D01*
X107846100Y-68199227D01*
X107848534Y-68209902D01*
X107836453Y-68216190D01*
X107808008Y-68212534D01*
X107755858Y-68188111D01*
X107679129Y-68142478D01*
X107634040Y-68113387D01*
X107543568Y-68056447D01*
X107473741Y-68018687D01*
X107419287Y-67997488D01*
X107388035Y-67991160D01*
X107315177Y-67992544D01*
X107250812Y-68010965D01*
X107205232Y-68042916D01*
X107195568Y-68056745D01*
X107186634Y-68076567D01*
X107195399Y-68077436D01*
X107225849Y-68061272D01*
X107270696Y-68044313D01*
X107314423Y-68051217D01*
X107319234Y-68053030D01*
X107351050Y-68071324D01*
X107365222Y-68089975D01*
X107359107Y-68101077D01*
X107334319Y-68098157D01*
X107285442Y-68096069D01*
X107251485Y-68123882D01*
X107238490Y-68158081D01*
X107225672Y-68193039D01*
X107210243Y-68207466D01*
X107200071Y-68219838D01*
X107202591Y-68232866D01*
X107205062Y-68255157D01*
X107191189Y-68255564D01*
X107168220Y-68236498D01*
X107152831Y-68216321D01*
X107130098Y-68155562D01*
X107128063Y-68085319D01*
X107146806Y-68022306D01*
X107151841Y-68013856D01*
X107197479Y-67973017D01*
X107267171Y-67947141D01*
X107353563Y-67938513D01*
X107388865Y-67940199D01*
X107388865Y-67940199D01*
G37*
X107388865Y-67940199D02*
X107446490Y-67950082D01*
X107504043Y-67972140D01*
X107572587Y-68010948D01*
X107595627Y-68025680D01*
X107654151Y-68065314D01*
X107703489Y-68101536D01*
X107735070Y-68127969D01*
X107739554Y-68132736D01*
X107772518Y-68160283D01*
X107814527Y-68183395D01*
X107846100Y-68199227D01*
X107848534Y-68209902D01*
X107836453Y-68216190D01*
X107808008Y-68212534D01*
X107755858Y-68188111D01*
X107679129Y-68142478D01*
X107634040Y-68113387D01*
X107543568Y-68056447D01*
X107473741Y-68018687D01*
X107419287Y-67997488D01*
X107388035Y-67991160D01*
X107315177Y-67992544D01*
X107250812Y-68010965D01*
X107205232Y-68042916D01*
X107195568Y-68056745D01*
X107186634Y-68076567D01*
X107195399Y-68077436D01*
X107225849Y-68061272D01*
X107270696Y-68044313D01*
X107314423Y-68051217D01*
X107319234Y-68053030D01*
X107351050Y-68071324D01*
X107365222Y-68089975D01*
X107359107Y-68101077D01*
X107334319Y-68098157D01*
X107285442Y-68096069D01*
X107251485Y-68123882D01*
X107238490Y-68158081D01*
X107225672Y-68193039D01*
X107210243Y-68207466D01*
X107200071Y-68219838D01*
X107202591Y-68232866D01*
X107205062Y-68255157D01*
X107191189Y-68255564D01*
X107168220Y-68236498D01*
X107152831Y-68216321D01*
X107130098Y-68155562D01*
X107128063Y-68085319D01*
X107146806Y-68022306D01*
X107151841Y-68013856D01*
X107197479Y-67973017D01*
X107267171Y-67947141D01*
X107353563Y-67938513D01*
X107388865Y-67940199D01*
G36*
X107195658Y-67642608D02*
X107195804Y-67651690D01*
X107186682Y-67696180D01*
X107169858Y-67723657D01*
X107138448Y-67746524D01*
X107116855Y-67746871D01*
X107111801Y-67733333D01*
X107124795Y-67717021D01*
X107129551Y-67716399D01*
X107147439Y-67702392D01*
X107168204Y-67668011D01*
X107171222Y-67661366D01*
X107187150Y-67626211D01*
X107193894Y-67620509D01*
X107195658Y-67642608D01*
X107195658Y-67642608D01*
G37*
X107195658Y-67642608D02*
X107195804Y-67651690D01*
X107186682Y-67696180D01*
X107169858Y-67723657D01*
X107138448Y-67746524D01*
X107116855Y-67746871D01*
X107111801Y-67733333D01*
X107124795Y-67717021D01*
X107129551Y-67716399D01*
X107147439Y-67702392D01*
X107168204Y-67668011D01*
X107171222Y-67661366D01*
X107187150Y-67626211D01*
X107193894Y-67620509D01*
X107195658Y-67642608D01*
G36*
X107054118Y-67265435D02*
X107072659Y-67284901D01*
X107084841Y-67306985D01*
X107103599Y-67352810D01*
X107111787Y-67391739D01*
X107111801Y-67392826D01*
X107119391Y-67425592D01*
X107128734Y-67437000D01*
X107147438Y-67459639D01*
X107138534Y-67478558D01*
X107107749Y-67484073D01*
X107101452Y-67483118D01*
X107070533Y-67480453D01*
X107064348Y-67494143D01*
X107068523Y-67510226D01*
X107070364Y-67560963D01*
X107044363Y-67598030D01*
X106995862Y-67614525D01*
X106987591Y-67614799D01*
X106929943Y-67604281D01*
X106897831Y-67573785D01*
X106891667Y-67543679D01*
X106880448Y-67518349D01*
X106854442Y-67515739D01*
X106826067Y-67536029D01*
X106817713Y-67560259D01*
X106836725Y-67585651D01*
X106902598Y-67627317D01*
X106976426Y-67645694D01*
X107048058Y-67639709D01*
X107101050Y-67613570D01*
X107132937Y-67594388D01*
X107144830Y-67598629D01*
X107135210Y-67621335D01*
X107111801Y-67648666D01*
X107063975Y-67674553D01*
X106997107Y-67681713D01*
X106920396Y-67670109D01*
X106863354Y-67649713D01*
X106802502Y-67612137D01*
X106759902Y-67566040D01*
X106741559Y-67518775D01*
X106742306Y-67501461D01*
X106766016Y-67466929D01*
X106821629Y-67440251D01*
X106907994Y-67421893D01*
X106950190Y-67417050D01*
X107013844Y-67409018D01*
X107048834Y-67397044D01*
X107060363Y-67376972D01*
X107053634Y-67344649D01*
X107050722Y-67336784D01*
X107027015Y-67318074D01*
X106980781Y-67310258D01*
X106921692Y-67313736D01*
X106859463Y-67328891D01*
X106820421Y-67339229D01*
X106797140Y-67339355D01*
X106796096Y-67338606D01*
X106800672Y-67324886D01*
X106829879Y-67307104D01*
X106875327Y-67288718D01*
X106928628Y-67273186D01*
X106975685Y-67264587D01*
X107025734Y-67260195D01*
X107054118Y-67265435D01*
X107054118Y-67265435D01*
G37*
X107054118Y-67265435D02*
X107072659Y-67284901D01*
X107084841Y-67306985D01*
X107103599Y-67352810D01*
X107111787Y-67391739D01*
X107111801Y-67392826D01*
X107119391Y-67425592D01*
X107128734Y-67437000D01*
X107147438Y-67459639D01*
X107138534Y-67478558D01*
X107107749Y-67484073D01*
X107101452Y-67483118D01*
X107070533Y-67480453D01*
X107064348Y-67494143D01*
X107068523Y-67510226D01*
X107070364Y-67560963D01*
X107044363Y-67598030D01*
X106995862Y-67614525D01*
X106987591Y-67614799D01*
X106929943Y-67604281D01*
X106897831Y-67573785D01*
X106891667Y-67543679D01*
X106880448Y-67518349D01*
X106854442Y-67515739D01*
X106826067Y-67536029D01*
X106817713Y-67560259D01*
X106836725Y-67585651D01*
X106902598Y-67627317D01*
X106976426Y-67645694D01*
X107048058Y-67639709D01*
X107101050Y-67613570D01*
X107132937Y-67594388D01*
X107144830Y-67598629D01*
X107135210Y-67621335D01*
X107111801Y-67648666D01*
X107063975Y-67674553D01*
X106997107Y-67681713D01*
X106920396Y-67670109D01*
X106863354Y-67649713D01*
X106802502Y-67612137D01*
X106759902Y-67566040D01*
X106741559Y-67518775D01*
X106742306Y-67501461D01*
X106766016Y-67466929D01*
X106821629Y-67440251D01*
X106907994Y-67421893D01*
X106950190Y-67417050D01*
X107013844Y-67409018D01*
X107048834Y-67397044D01*
X107060363Y-67376972D01*
X107053634Y-67344649D01*
X107050722Y-67336784D01*
X107027015Y-67318074D01*
X106980781Y-67310258D01*
X106921692Y-67313736D01*
X106859463Y-67328891D01*
X106820421Y-67339229D01*
X106797140Y-67339355D01*
X106796096Y-67338606D01*
X106800672Y-67324886D01*
X106829879Y-67307104D01*
X106875327Y-67288718D01*
X106928628Y-67273186D01*
X106975685Y-67264587D01*
X107025734Y-67260195D01*
X107054118Y-67265435D01*
G36*
X107111601Y-67106693D02*
X107149513Y-67116221D01*
X107169698Y-67113449D01*
X107196355Y-67117440D01*
X107206614Y-67134676D01*
X107218679Y-67164734D01*
X107240916Y-67215160D01*
X107268829Y-67275797D01*
X107272970Y-67284600D01*
X107303413Y-67354064D01*
X107327479Y-67418328D01*
X107343089Y-67470648D01*
X107348165Y-67504279D01*
X107343419Y-67513200D01*
X107330604Y-67500058D01*
X107308347Y-67467163D01*
X107299740Y-67452965D01*
X107277394Y-67411833D01*
X107265053Y-67382782D01*
X107264201Y-67378169D01*
X107256743Y-67345339D01*
X107238213Y-67301085D01*
X107214373Y-67256270D01*
X107190985Y-67221758D01*
X107174142Y-67208400D01*
X107145996Y-67197879D01*
X107112586Y-67172596D01*
X107083595Y-67141970D01*
X107068709Y-67115419D01*
X107069542Y-67106679D01*
X107092131Y-67099018D01*
X107111601Y-67106693D01*
X107111601Y-67106693D01*
G37*
X107111601Y-67106693D02*
X107149513Y-67116221D01*
X107169698Y-67113449D01*
X107196355Y-67117440D01*
X107206614Y-67134676D01*
X107218679Y-67164734D01*
X107240916Y-67215160D01*
X107268829Y-67275797D01*
X107272970Y-67284600D01*
X107303413Y-67354064D01*
X107327479Y-67418328D01*
X107343089Y-67470648D01*
X107348165Y-67504279D01*
X107343419Y-67513200D01*
X107330604Y-67500058D01*
X107308347Y-67467163D01*
X107299740Y-67452965D01*
X107277394Y-67411833D01*
X107265053Y-67382782D01*
X107264201Y-67378169D01*
X107256743Y-67345339D01*
X107238213Y-67301085D01*
X107214373Y-67256270D01*
X107190985Y-67221758D01*
X107174142Y-67208400D01*
X107145996Y-67197879D01*
X107112586Y-67172596D01*
X107083595Y-67141970D01*
X107068709Y-67115419D01*
X107069542Y-67106679D01*
X107092131Y-67099018D01*
X107111601Y-67106693D01*
G36*
X106818166Y-67051440D02*
X106817471Y-67089146D01*
X106807302Y-67139409D01*
X106778591Y-67215821D01*
X106730305Y-67274285D01*
X106728605Y-67275789D01*
X106680306Y-67313969D01*
X106650491Y-67325106D01*
X106636139Y-67308322D01*
X106634226Y-67262735D01*
X106635189Y-67248574D01*
X106634576Y-67199030D01*
X106623829Y-67181277D01*
X106605174Y-67195575D01*
X106580840Y-67242185D01*
X106580829Y-67242212D01*
X106556140Y-67280311D01*
X106515542Y-67324105D01*
X106468073Y-67365741D01*
X106422771Y-67397367D01*
X106388673Y-67411130D01*
X106386298Y-67411223D01*
X106370639Y-67407409D01*
X106380992Y-67393013D01*
X106394564Y-67381590D01*
X106426707Y-67345137D01*
X106442272Y-67314233D01*
X106456576Y-67284679D01*
X106468391Y-67276133D01*
X106484718Y-67262652D01*
X106509167Y-67228521D01*
X106521469Y-67207864D01*
X106561904Y-67154132D01*
X106602986Y-67130641D01*
X106648487Y-67117389D01*
X106675537Y-67105777D01*
X106710090Y-67092244D01*
X106725004Y-67089866D01*
X106752186Y-67079382D01*
X106776138Y-67061748D01*
X106804546Y-67042701D01*
X106818166Y-67051440D01*
X106818166Y-67051440D01*
G37*
X106818166Y-67051440D02*
X106817471Y-67089146D01*
X106807302Y-67139409D01*
X106778591Y-67215821D01*
X106730305Y-67274285D01*
X106728605Y-67275789D01*
X106680306Y-67313969D01*
X106650491Y-67325106D01*
X106636139Y-67308322D01*
X106634226Y-67262735D01*
X106635189Y-67248574D01*
X106634576Y-67199030D01*
X106623829Y-67181277D01*
X106605174Y-67195575D01*
X106580840Y-67242185D01*
X106580829Y-67242212D01*
X106556140Y-67280311D01*
X106515542Y-67324105D01*
X106468073Y-67365741D01*
X106422771Y-67397367D01*
X106388673Y-67411130D01*
X106386298Y-67411223D01*
X106370639Y-67407409D01*
X106380992Y-67393013D01*
X106394564Y-67381590D01*
X106426707Y-67345137D01*
X106442272Y-67314233D01*
X106456576Y-67284679D01*
X106468391Y-67276133D01*
X106484718Y-67262652D01*
X106509167Y-67228521D01*
X106521469Y-67207864D01*
X106561904Y-67154132D01*
X106602986Y-67130641D01*
X106648487Y-67117389D01*
X106675537Y-67105777D01*
X106710090Y-67092244D01*
X106725004Y-67089866D01*
X106752186Y-67079382D01*
X106776138Y-67061748D01*
X106804546Y-67042701D01*
X106818166Y-67051440D01*
D12*
X101993700Y-72707500D03*
D13*
X101993700Y-75247500D03*
D12*
X94335600Y-62280800D03*
D13*
X94335600Y-59740800D03*
D14*
X99314000Y-61493400D03*
D15*
X101854000Y-61493400D03*
D14*
X107391200Y-61645800D03*
D15*
X104851200Y-61645800D03*
D16*
X94335600Y-74218800D03*
X91795600Y-74218800D03*
M02*
