G04 #@! TF.FileFunction,Copper,L1,Top,Signal*
%FSLAX46Y46*%
G04 Gerber Fmt 4.6, Leading zero omitted, Abs format (unit mm)*
G04 Created by KiCad (PCBNEW 0.201510241816+6277~30~ubuntu14.04.1-product) date 2015-10-26T15:41:35 CET*
%MOMM*%
G01*
G04 APERTURE LIST*
%ADD10C,0.100000*%
%ADD11R,2.197100X1.524000*%
%ADD12O,2.197100X1.524000*%
%ADD13R,1.524000X2.197100*%
%ADD14O,1.524000X2.197100*%
%ADD15O,1.524000X2.200000*%
%ADD16C,0.600000*%
%ADD17C,0.500000*%
%ADD18C,0.254000*%
G04 APERTURE END LIST*
D10*
D11*
X101993700Y-72707500D03*
D12*
X101993700Y-75247500D03*
D11*
X94335600Y-62280800D03*
D12*
X94335600Y-59740800D03*
D13*
X99314000Y-61493400D03*
D14*
X101854000Y-61493400D03*
D13*
X107391200Y-61645800D03*
D14*
X104851200Y-61645800D03*
D15*
X94335600Y-74218800D03*
X91795600Y-74218800D03*
D16*
X95885000Y-72390000D03*
X104267000Y-66230500D03*
X94678500Y-70548500D03*
X99250500Y-70548500D03*
D17*
X99250500Y-70548500D02*
X94678500Y-70548500D01*
D18*
G36*
X109678000Y-77293000D02*
X90347000Y-77293000D01*
X90347000Y-73846809D01*
X90398600Y-73846809D01*
X90398600Y-74590791D01*
X90504940Y-75125400D01*
X90807772Y-75578619D01*
X91260991Y-75881451D01*
X91795600Y-75987791D01*
X92330209Y-75881451D01*
X92783428Y-75578619D01*
X93065600Y-75156320D01*
X93347772Y-75578619D01*
X93800991Y-75881451D01*
X94335600Y-75987791D01*
X94870209Y-75881451D01*
X95323428Y-75578619D01*
X95544675Y-75247500D01*
X100226188Y-75247500D01*
X100332528Y-75782109D01*
X100635360Y-76235328D01*
X101088579Y-76538160D01*
X101623188Y-76644500D01*
X102364212Y-76644500D01*
X102898821Y-76538160D01*
X103352040Y-76235328D01*
X103654872Y-75782109D01*
X103761212Y-75247500D01*
X103654872Y-74712891D01*
X103352040Y-74259672D01*
X103119809Y-74104500D01*
X103218560Y-74104500D01*
X103451949Y-74007827D01*
X103630577Y-73829198D01*
X103727250Y-73595809D01*
X103727250Y-72993250D01*
X103568500Y-72834500D01*
X102120700Y-72834500D01*
X102120700Y-72854500D01*
X101866700Y-72854500D01*
X101866700Y-72834500D01*
X100418900Y-72834500D01*
X100260150Y-72993250D01*
X100260150Y-73595809D01*
X100356823Y-73829198D01*
X100535451Y-74007827D01*
X100768840Y-74104500D01*
X100867591Y-74104500D01*
X100635360Y-74259672D01*
X100332528Y-74712891D01*
X100226188Y-75247500D01*
X95544675Y-75247500D01*
X95626260Y-75125400D01*
X95732600Y-74590791D01*
X95732600Y-73846809D01*
X95626260Y-73312200D01*
X95323428Y-72858981D01*
X94870209Y-72556149D01*
X94335600Y-72449809D01*
X93800991Y-72556149D01*
X93347772Y-72858981D01*
X93065600Y-73281280D01*
X92783428Y-72858981D01*
X92330209Y-72556149D01*
X91795600Y-72449809D01*
X91260991Y-72556149D01*
X90807772Y-72858981D01*
X90504940Y-73312200D01*
X90398600Y-73846809D01*
X90347000Y-73846809D01*
X90347000Y-71819191D01*
X100260150Y-71819191D01*
X100260150Y-72421750D01*
X100418900Y-72580500D01*
X101866700Y-72580500D01*
X101866700Y-71469250D01*
X102120700Y-71469250D01*
X102120700Y-72580500D01*
X103568500Y-72580500D01*
X103727250Y-72421750D01*
X103727250Y-71819191D01*
X103630577Y-71585802D01*
X103451949Y-71407173D01*
X103218560Y-71310500D01*
X102279450Y-71310500D01*
X102120700Y-71469250D01*
X101866700Y-71469250D01*
X101707950Y-71310500D01*
X100768840Y-71310500D01*
X100535451Y-71407173D01*
X100356823Y-71585802D01*
X100260150Y-71819191D01*
X90347000Y-71819191D01*
X90347000Y-70733667D01*
X93743338Y-70733667D01*
X93885383Y-71077443D01*
X94148173Y-71340692D01*
X94491701Y-71483338D01*
X94863667Y-71483662D01*
X94985069Y-71433500D01*
X98943678Y-71433500D01*
X99063701Y-71483338D01*
X99435667Y-71483662D01*
X99779443Y-71341617D01*
X100042692Y-71078827D01*
X100185338Y-70735299D01*
X100185662Y-70363333D01*
X100043617Y-70019557D01*
X99780827Y-69756308D01*
X99437299Y-69613662D01*
X99065333Y-69613338D01*
X98943931Y-69663500D01*
X94985322Y-69663500D01*
X94865299Y-69613662D01*
X94493333Y-69613338D01*
X94149557Y-69755383D01*
X93886308Y-70018173D01*
X93743662Y-70361701D01*
X93743338Y-70733667D01*
X90347000Y-70733667D01*
X90347000Y-59740800D01*
X92568088Y-59740800D01*
X92674428Y-60275409D01*
X92977260Y-60728628D01*
X93201019Y-60878140D01*
X93001733Y-60915638D01*
X92785609Y-61054710D01*
X92640619Y-61266910D01*
X92589610Y-61518800D01*
X92589610Y-63042800D01*
X92633888Y-63278117D01*
X92772960Y-63494241D01*
X92985160Y-63639231D01*
X93237050Y-63690240D01*
X95434150Y-63690240D01*
X95669467Y-63645962D01*
X95885591Y-63506890D01*
X96030581Y-63294690D01*
X96081590Y-63042800D01*
X96081590Y-61779150D01*
X97917000Y-61779150D01*
X97917000Y-62718260D01*
X98013673Y-62951649D01*
X98192302Y-63130277D01*
X98425691Y-63226950D01*
X99028250Y-63226950D01*
X99187000Y-63068200D01*
X99187000Y-61620400D01*
X98075750Y-61620400D01*
X97917000Y-61779150D01*
X96081590Y-61779150D01*
X96081590Y-61518800D01*
X96037312Y-61283483D01*
X95898240Y-61067359D01*
X95686040Y-60922369D01*
X95469587Y-60878536D01*
X95693940Y-60728628D01*
X95996772Y-60275409D01*
X95998138Y-60268540D01*
X97917000Y-60268540D01*
X97917000Y-61207650D01*
X98075750Y-61366400D01*
X99187000Y-61366400D01*
X99187000Y-59918600D01*
X99441000Y-59918600D01*
X99441000Y-61366400D01*
X99461000Y-61366400D01*
X99461000Y-61620400D01*
X99441000Y-61620400D01*
X99441000Y-63068200D01*
X99599750Y-63226950D01*
X100202309Y-63226950D01*
X100435698Y-63130277D01*
X100614327Y-62951649D01*
X100711000Y-62718260D01*
X100711000Y-62619509D01*
X100866172Y-62851740D01*
X101319391Y-63154572D01*
X101854000Y-63260912D01*
X102388609Y-63154572D01*
X102841828Y-62851740D01*
X103144660Y-62398521D01*
X103251000Y-61863912D01*
X103251000Y-61275288D01*
X103454200Y-61275288D01*
X103454200Y-62016312D01*
X103560540Y-62550921D01*
X103863372Y-63004140D01*
X104316591Y-63306972D01*
X104851200Y-63413312D01*
X105385809Y-63306972D01*
X105839028Y-63004140D01*
X105994200Y-62771909D01*
X105994200Y-62870660D01*
X106090873Y-63104049D01*
X106269502Y-63282677D01*
X106502891Y-63379350D01*
X107105450Y-63379350D01*
X107264200Y-63220600D01*
X107264200Y-61772800D01*
X107518200Y-61772800D01*
X107518200Y-63220600D01*
X107676950Y-63379350D01*
X108279509Y-63379350D01*
X108512898Y-63282677D01*
X108691527Y-63104049D01*
X108788200Y-62870660D01*
X108788200Y-61931550D01*
X108629450Y-61772800D01*
X107518200Y-61772800D01*
X107264200Y-61772800D01*
X107244200Y-61772800D01*
X107244200Y-61518800D01*
X107264200Y-61518800D01*
X107264200Y-60071000D01*
X107518200Y-60071000D01*
X107518200Y-61518800D01*
X108629450Y-61518800D01*
X108788200Y-61360050D01*
X108788200Y-60420940D01*
X108691527Y-60187551D01*
X108512898Y-60008923D01*
X108279509Y-59912250D01*
X107676950Y-59912250D01*
X107518200Y-60071000D01*
X107264200Y-60071000D01*
X107105450Y-59912250D01*
X106502891Y-59912250D01*
X106269502Y-60008923D01*
X106090873Y-60187551D01*
X105994200Y-60420940D01*
X105994200Y-60519691D01*
X105839028Y-60287460D01*
X105385809Y-59984628D01*
X104851200Y-59878288D01*
X104316591Y-59984628D01*
X103863372Y-60287460D01*
X103560540Y-60740679D01*
X103454200Y-61275288D01*
X103251000Y-61275288D01*
X103251000Y-61122888D01*
X103144660Y-60588279D01*
X102841828Y-60135060D01*
X102388609Y-59832228D01*
X101854000Y-59725888D01*
X101319391Y-59832228D01*
X100866172Y-60135060D01*
X100711000Y-60367291D01*
X100711000Y-60268540D01*
X100614327Y-60035151D01*
X100435698Y-59856523D01*
X100202309Y-59759850D01*
X99599750Y-59759850D01*
X99441000Y-59918600D01*
X99187000Y-59918600D01*
X99028250Y-59759850D01*
X98425691Y-59759850D01*
X98192302Y-59856523D01*
X98013673Y-60035151D01*
X97917000Y-60268540D01*
X95998138Y-60268540D01*
X96103112Y-59740800D01*
X95996772Y-59206191D01*
X95693940Y-58752972D01*
X95240721Y-58450140D01*
X94706112Y-58343800D01*
X93965088Y-58343800D01*
X93430479Y-58450140D01*
X92977260Y-58752972D01*
X92674428Y-59206191D01*
X92568088Y-59740800D01*
X90347000Y-59740800D01*
X90347000Y-58216000D01*
X109678000Y-58216000D01*
X109678000Y-77293000D01*
X109678000Y-77293000D01*
G37*
X109678000Y-77293000D02*
X90347000Y-77293000D01*
X90347000Y-73846809D01*
X90398600Y-73846809D01*
X90398600Y-74590791D01*
X90504940Y-75125400D01*
X90807772Y-75578619D01*
X91260991Y-75881451D01*
X91795600Y-75987791D01*
X92330209Y-75881451D01*
X92783428Y-75578619D01*
X93065600Y-75156320D01*
X93347772Y-75578619D01*
X93800991Y-75881451D01*
X94335600Y-75987791D01*
X94870209Y-75881451D01*
X95323428Y-75578619D01*
X95544675Y-75247500D01*
X100226188Y-75247500D01*
X100332528Y-75782109D01*
X100635360Y-76235328D01*
X101088579Y-76538160D01*
X101623188Y-76644500D01*
X102364212Y-76644500D01*
X102898821Y-76538160D01*
X103352040Y-76235328D01*
X103654872Y-75782109D01*
X103761212Y-75247500D01*
X103654872Y-74712891D01*
X103352040Y-74259672D01*
X103119809Y-74104500D01*
X103218560Y-74104500D01*
X103451949Y-74007827D01*
X103630577Y-73829198D01*
X103727250Y-73595809D01*
X103727250Y-72993250D01*
X103568500Y-72834500D01*
X102120700Y-72834500D01*
X102120700Y-72854500D01*
X101866700Y-72854500D01*
X101866700Y-72834500D01*
X100418900Y-72834500D01*
X100260150Y-72993250D01*
X100260150Y-73595809D01*
X100356823Y-73829198D01*
X100535451Y-74007827D01*
X100768840Y-74104500D01*
X100867591Y-74104500D01*
X100635360Y-74259672D01*
X100332528Y-74712891D01*
X100226188Y-75247500D01*
X95544675Y-75247500D01*
X95626260Y-75125400D01*
X95732600Y-74590791D01*
X95732600Y-73846809D01*
X95626260Y-73312200D01*
X95323428Y-72858981D01*
X94870209Y-72556149D01*
X94335600Y-72449809D01*
X93800991Y-72556149D01*
X93347772Y-72858981D01*
X93065600Y-73281280D01*
X92783428Y-72858981D01*
X92330209Y-72556149D01*
X91795600Y-72449809D01*
X91260991Y-72556149D01*
X90807772Y-72858981D01*
X90504940Y-73312200D01*
X90398600Y-73846809D01*
X90347000Y-73846809D01*
X90347000Y-71819191D01*
X100260150Y-71819191D01*
X100260150Y-72421750D01*
X100418900Y-72580500D01*
X101866700Y-72580500D01*
X101866700Y-71469250D01*
X102120700Y-71469250D01*
X102120700Y-72580500D01*
X103568500Y-72580500D01*
X103727250Y-72421750D01*
X103727250Y-71819191D01*
X103630577Y-71585802D01*
X103451949Y-71407173D01*
X103218560Y-71310500D01*
X102279450Y-71310500D01*
X102120700Y-71469250D01*
X101866700Y-71469250D01*
X101707950Y-71310500D01*
X100768840Y-71310500D01*
X100535451Y-71407173D01*
X100356823Y-71585802D01*
X100260150Y-71819191D01*
X90347000Y-71819191D01*
X90347000Y-70733667D01*
X93743338Y-70733667D01*
X93885383Y-71077443D01*
X94148173Y-71340692D01*
X94491701Y-71483338D01*
X94863667Y-71483662D01*
X94985069Y-71433500D01*
X98943678Y-71433500D01*
X99063701Y-71483338D01*
X99435667Y-71483662D01*
X99779443Y-71341617D01*
X100042692Y-71078827D01*
X100185338Y-70735299D01*
X100185662Y-70363333D01*
X100043617Y-70019557D01*
X99780827Y-69756308D01*
X99437299Y-69613662D01*
X99065333Y-69613338D01*
X98943931Y-69663500D01*
X94985322Y-69663500D01*
X94865299Y-69613662D01*
X94493333Y-69613338D01*
X94149557Y-69755383D01*
X93886308Y-70018173D01*
X93743662Y-70361701D01*
X93743338Y-70733667D01*
X90347000Y-70733667D01*
X90347000Y-59740800D01*
X92568088Y-59740800D01*
X92674428Y-60275409D01*
X92977260Y-60728628D01*
X93201019Y-60878140D01*
X93001733Y-60915638D01*
X92785609Y-61054710D01*
X92640619Y-61266910D01*
X92589610Y-61518800D01*
X92589610Y-63042800D01*
X92633888Y-63278117D01*
X92772960Y-63494241D01*
X92985160Y-63639231D01*
X93237050Y-63690240D01*
X95434150Y-63690240D01*
X95669467Y-63645962D01*
X95885591Y-63506890D01*
X96030581Y-63294690D01*
X96081590Y-63042800D01*
X96081590Y-61779150D01*
X97917000Y-61779150D01*
X97917000Y-62718260D01*
X98013673Y-62951649D01*
X98192302Y-63130277D01*
X98425691Y-63226950D01*
X99028250Y-63226950D01*
X99187000Y-63068200D01*
X99187000Y-61620400D01*
X98075750Y-61620400D01*
X97917000Y-61779150D01*
X96081590Y-61779150D01*
X96081590Y-61518800D01*
X96037312Y-61283483D01*
X95898240Y-61067359D01*
X95686040Y-60922369D01*
X95469587Y-60878536D01*
X95693940Y-60728628D01*
X95996772Y-60275409D01*
X95998138Y-60268540D01*
X97917000Y-60268540D01*
X97917000Y-61207650D01*
X98075750Y-61366400D01*
X99187000Y-61366400D01*
X99187000Y-59918600D01*
X99441000Y-59918600D01*
X99441000Y-61366400D01*
X99461000Y-61366400D01*
X99461000Y-61620400D01*
X99441000Y-61620400D01*
X99441000Y-63068200D01*
X99599750Y-63226950D01*
X100202309Y-63226950D01*
X100435698Y-63130277D01*
X100614327Y-62951649D01*
X100711000Y-62718260D01*
X100711000Y-62619509D01*
X100866172Y-62851740D01*
X101319391Y-63154572D01*
X101854000Y-63260912D01*
X102388609Y-63154572D01*
X102841828Y-62851740D01*
X103144660Y-62398521D01*
X103251000Y-61863912D01*
X103251000Y-61275288D01*
X103454200Y-61275288D01*
X103454200Y-62016312D01*
X103560540Y-62550921D01*
X103863372Y-63004140D01*
X104316591Y-63306972D01*
X104851200Y-63413312D01*
X105385809Y-63306972D01*
X105839028Y-63004140D01*
X105994200Y-62771909D01*
X105994200Y-62870660D01*
X106090873Y-63104049D01*
X106269502Y-63282677D01*
X106502891Y-63379350D01*
X107105450Y-63379350D01*
X107264200Y-63220600D01*
X107264200Y-61772800D01*
X107518200Y-61772800D01*
X107518200Y-63220600D01*
X107676950Y-63379350D01*
X108279509Y-63379350D01*
X108512898Y-63282677D01*
X108691527Y-63104049D01*
X108788200Y-62870660D01*
X108788200Y-61931550D01*
X108629450Y-61772800D01*
X107518200Y-61772800D01*
X107264200Y-61772800D01*
X107244200Y-61772800D01*
X107244200Y-61518800D01*
X107264200Y-61518800D01*
X107264200Y-60071000D01*
X107518200Y-60071000D01*
X107518200Y-61518800D01*
X108629450Y-61518800D01*
X108788200Y-61360050D01*
X108788200Y-60420940D01*
X108691527Y-60187551D01*
X108512898Y-60008923D01*
X108279509Y-59912250D01*
X107676950Y-59912250D01*
X107518200Y-60071000D01*
X107264200Y-60071000D01*
X107105450Y-59912250D01*
X106502891Y-59912250D01*
X106269502Y-60008923D01*
X106090873Y-60187551D01*
X105994200Y-60420940D01*
X105994200Y-60519691D01*
X105839028Y-60287460D01*
X105385809Y-59984628D01*
X104851200Y-59878288D01*
X104316591Y-59984628D01*
X103863372Y-60287460D01*
X103560540Y-60740679D01*
X103454200Y-61275288D01*
X103251000Y-61275288D01*
X103251000Y-61122888D01*
X103144660Y-60588279D01*
X102841828Y-60135060D01*
X102388609Y-59832228D01*
X101854000Y-59725888D01*
X101319391Y-59832228D01*
X100866172Y-60135060D01*
X100711000Y-60367291D01*
X100711000Y-60268540D01*
X100614327Y-60035151D01*
X100435698Y-59856523D01*
X100202309Y-59759850D01*
X99599750Y-59759850D01*
X99441000Y-59918600D01*
X99187000Y-59918600D01*
X99028250Y-59759850D01*
X98425691Y-59759850D01*
X98192302Y-59856523D01*
X98013673Y-60035151D01*
X97917000Y-60268540D01*
X95998138Y-60268540D01*
X96103112Y-59740800D01*
X95996772Y-59206191D01*
X95693940Y-58752972D01*
X95240721Y-58450140D01*
X94706112Y-58343800D01*
X93965088Y-58343800D01*
X93430479Y-58450140D01*
X92977260Y-58752972D01*
X92674428Y-59206191D01*
X92568088Y-59740800D01*
X90347000Y-59740800D01*
X90347000Y-58216000D01*
X109678000Y-58216000D01*
X109678000Y-77293000D01*
M02*
